<svg width="13" height="13" viewBox="0 0 13 13" fill="none" xmlns="http://www.w3.org/2000/svg">
<path d="M11.2986 1.74196C10.8552 1.24072 10.0545 1.20984 9.52071 1.76294L4.29491 7.17798C4.15976 7.31802 4.15976 7.4964 4.29491 7.63644C4.43005 7.77648 4.6022 7.77648 4.73735 7.63644L9.05993 3.15733C9.31188 2.89626 9.72037 2.89626 9.97232 3.15733C10.2243 3.41841 10.2243 3.84169 9.97232 4.10277L5.64974 8.58187C5.0107 9.24406 4.02156 9.24406 3.38251 8.58187C2.74346 7.91969 2.74346 6.89473 3.38251 6.23254L8.60832 0.817501C9.61963 -0.230431 11.2631 -0.26453 12.2402 0.827735C13.2417 1.87626 13.2712 3.57093 12.2212 4.58024L6.10136 10.9217C4.68812 12.3861 2.47317 12.3861 1.05993 10.9217C-0.35331 9.45729 -0.35331 7.16214 1.05993 5.69772L6.28574 0.282682C6.53769 0.0216075 6.94618 0.0216075 7.19813 0.282682C7.45008 0.543757 7.45008 0.967043 7.19813 1.22812L1.97233 6.64316C1.06299 7.58542 1.06299 9.034 1.97233 9.97627C2.88166 10.9185 4.27962 10.9185 5.18896 9.97627L11.318 3.6253C11.3246 3.61845 11.3313 3.61175 11.3382 3.60521C11.822 3.14575 11.8518 2.31604 11.318 1.76294C11.3114 1.75609 11.3049 1.74909 11.2986 1.74196Z" fill="#142251"/>
</svg>
