<svg width="13" height="14" viewBox="0 0 13 14" fill="none" xmlns="http://www.w3.org/2000/svg">
<path d="M9.60042 0.231554C9.88247 -0.0504918 10.3398 -0.0504918 10.6218 0.231554L12.7885 2.39822C13.0705 2.68027 13.0705 3.13755 12.7885 3.4196L6.28847 9.9196C6.15302 10.055 5.96932 10.1311 5.77778 10.1311H3.61111C3.21224 10.1311 2.88889 9.80778 2.88889 9.40891V7.24224C2.88889 7.0507 2.96498 6.867 3.10042 6.73155L9.60042 0.231554ZM4.33333 7.5414V8.68669H5.47862L11.2564 2.90891L10.1111 1.76362L4.33333 7.5414ZM0 2.90891C0 2.11116 0.6467 1.46446 1.44444 1.46446H5.05556C5.45443 1.46446 5.77778 1.78781 5.77778 2.18669C5.77778 2.58556 5.45443 2.90891 5.05556 2.90891H1.44444V11.5756H10.1111V7.96446C10.1111 7.56559 10.4345 7.24224 10.8333 7.24224C11.2322 7.24224 11.5556 7.56559 11.5556 7.96446V11.5756C11.5556 12.3733 10.9089 13.02 10.1111 13.02H1.44444C0.6467 13.02 0 12.3733 0 11.5756V2.90891Z" fill="#142251"/>
</svg>
