<svg width="16" height="15" viewBox="0 0 16 15" fill="none" xmlns="http://www.w3.org/2000/svg">
<g filter="url(#filter0_i_17_6)">
<path d="M8.30742 0.255615C8.58885 0.255615 8.84612 0.414618 8.97198 0.666333L10.8881 4.49857L15.1013 5.1114C15.3812 5.1521 15.6136 5.34813 15.701 5.61707C15.7884 5.88601 15.7155 6.18124 15.5131 6.37865L12.4466 9.36842L13.1364 13.5839C13.182 13.8625 13.0658 14.1428 12.8365 14.3074C12.6071 14.4721 12.3043 14.4925 12.0549 14.3602L8.30742 12.3717L4.55991 14.3602C4.31054 14.4925 4.00773 14.4721 3.77839 14.3074C3.54906 14.1428 3.43283 13.8625 3.47841 13.5839L4.16821 9.36842L1.10177 6.37865C0.899303 6.18124 0.826444 5.88601 0.913826 5.61707C1.00121 5.34813 1.23368 5.1521 1.51351 5.1114L5.72675 4.49857L7.64287 0.666333C7.76872 0.414618 8.026 0.255615 8.30742 0.255615ZM8.30742 11.2148L6.78506 7.11595C6.67633 7.33343 6.5653 5.87823 6.32469 5.91322L10.1285 8.50907L5.48263 8.57457C5.65625 8.74386 5.43111 7.43389 5.39195 7.6732L8.0288 8.36628L9.11709 8.52333C9.33488 8.40777 8.43789 10.7587 8.65568 10.8743L11.428 12.3453L9.84992 11.8526C9.81076 11.6132 8.28318 11.5103 8.45681 11.3411L13.3981 6.36529L8.0288 11.772C7.78819 11.7371 8.84416 9.00517 8.73543 8.7877L8.30742 11.2148Z" fill="#142251"/>
</g>
<defs>
<filter id="filter0_i_17_6" x="0.877441" y="0.255615" width="14.8599" height="14.1912" filterUnits="userSpaceOnUse" color-interpolation-filters="sRGB">
<feFlood flood-opacity="0" result="BackgroundImageFix"/>
<feBlend mode="normal" in="SourceGraphic" in2="BackgroundImageFix" result="shape"/>
<feColorMatrix in="SourceAlpha" type="matrix" values="0 0 0 0 0 0 0 0 0 0 0 0 0 0 0 0 0 0 127 0" result="hardAlpha"/>
<feOffset/>
<feGaussianBlur stdDeviation="1.11449"/>
<feComposite in2="hardAlpha" operator="arithmetic" k2="-1" k3="1"/>
<feColorMatrix type="matrix" values="0 0 0 0 1 0 0 0 0 1 0 0 0 0 1 0 0 0 1 0"/>
<feBlend mode="normal" in2="shape" result="effect1_innerShadow_17_6"/>
</filter>
</defs>
</svg>
