<svg width="205" height="246" viewBox="0 0 205 246" fill="none" xmlns="http://www.w3.org/2000/svg">
<path d="M142.696 42.1531L2 125.617L64.1223 242.898L194.431 167.665L142.696 42.1531Z" fill="white"/>
<path d="M142.696 42.1531L2 125.617L64.1223 242.898L194.431 167.665L142.696 42.1531Z" stroke="#989EB1" stroke-width="2"/>
<path d="M171.16 2L30.4648 75.4637L51.9237 202.745L182.232 127.512L171.16 2Z" fill="white"/>
<path d="M171.16 2L30.4648 75.4637L51.9237 202.745L182.232 127.512L171.16 2Z" stroke="#142251" stroke-width="2"/>
<path d="M157.742 85.7668L157.742 69.4533L62.9958 123.894L62.9958 238.358C62.9958 242.521 65.3211 244.555 68.1893 242.899L198.498 167.665C201.366 166.009 203.691 161.291 203.691 157.127L203.691 58.4186L157.742 85.7668Z" fill="white" stroke="#989EB1" stroke-width="2"/>
<path d="M53.6426 93.8994L125.617 55.8293" stroke="#142251" stroke-width="2"/>
<path d="M54 115.211L97.9165 92" stroke="#142251" stroke-width="2"/>
</svg>
