<svg width="579" height="524" viewBox="0 0 579 524" fill="none" xmlns="http://www.w3.org/2000/svg">
<g clip-path="url(#clip0_50_84)">
<path d="M209.766 226.483L62.8885 311.283C53.5937 316.649 53.5875 325.346 62.8747 330.708L377.792 512.525C387.079 517.887 402.143 517.884 411.437 512.517L558.315 427.717C567.61 422.351 567.616 413.654 558.329 408.292L243.412 226.475C234.125 221.113 219.061 221.116 209.766 226.483Z" fill="white" stroke="#142251" stroke-width="2"/>
<path d="M165.399 250.333L104.2 285.667C98.2852 289.082 98.2813 294.616 104.191 298.028C110.101 301.441 119.687 301.438 125.602 298.023L186.801 262.69C192.716 259.275 192.72 253.741 186.81 250.328C180.9 246.916 171.314 246.918 165.399 250.333Z" fill="#142251"/>
<path d="M154.68 267.112L133.26 279.479C132.415 279.967 132.415 280.757 133.259 281.245C134.103 281.732 135.473 281.732 136.318 281.244L157.738 268.878C158.583 268.39 158.583 267.599 157.739 267.112C156.895 266.624 155.525 266.624 154.68 267.112Z" fill="white"/>
<path d="M369.508 332.843L300.659 372.593C296.012 375.276 296.009 379.625 300.652 382.306L325.112 396.427C329.755 399.108 337.287 399.106 341.935 396.423L410.784 356.673C415.431 353.99 415.434 349.642 410.79 346.961L386.331 332.839C381.687 330.158 374.155 330.16 369.508 332.843Z" stroke="#E4E7F1"/>
<path d="M302.172 395.55C290.774 388.969 272.287 388.973 260.879 395.559C249.472 402.145 249.464 412.819 260.862 419.4C272.26 425.98 290.748 425.976 302.155 419.39C313.562 412.804 313.57 402.13 302.172 395.55Z" stroke="#E4E7F1"/>
<path d="M264.748 332.426L195.899 372.176C190.829 375.103 190.825 379.847 195.891 382.772L220.351 396.893C225.416 399.818 233.633 399.816 238.703 396.889L307.552 357.139C312.622 354.212 312.625 349.468 307.559 346.543L283.1 332.422C278.034 329.497 269.818 329.499 264.748 332.426Z" fill="#E4E7F1"/>
<path d="M347.349 309.449C335.529 302.625 316.357 302.63 304.527 309.46C292.697 316.289 292.689 327.358 304.51 334.183C316.33 341.007 335.502 341.002 347.331 334.173C359.161 327.343 359.169 316.274 347.349 309.449Z" fill="#E4E7F1"/>
<path d="M263.26 273.267L143.922 342.167C138.852 345.094 138.849 349.838 143.915 352.763L168.374 366.885C173.44 369.809 181.656 369.807 186.726 366.88L306.065 297.98C311.135 295.053 311.138 290.309 306.072 287.385L281.613 273.263C276.547 270.338 268.33 270.34 263.26 273.267Z" fill="#E4E7F1"/>
<path d="M419.19 363.293L299.852 432.193C294.782 435.121 294.779 439.864 299.844 442.789L324.304 456.911C329.37 459.836 337.586 459.834 342.656 456.906L461.994 388.006C467.064 385.079 467.068 380.336 462.002 377.411L437.542 363.289C432.477 360.364 424.26 360.366 419.19 363.293Z" fill="#E4E7F1"/>
<path d="M454.516 467.256C446.231 469.372 437.102 470.141 428.118 469.482C419.133 468.823 410.633 466.76 403.535 463.516C396.436 460.272 391.007 455.969 387.834 451.072C384.663 446.176 383.866 440.87 385.533 435.73C387.2 430.589 391.266 425.807 397.292 421.9C403.318 417.993 411.077 415.109 419.73 413.561C428.383 412.011 437.603 411.855 446.395 413.109C455.187 414.362 463.216 416.978 469.618 420.675" stroke="#142251" stroke-width="2" stroke-linecap="round"/>
<path d="M372.617 447.164C370.184 439.007 372.667 430.611 379.652 423.378C386.636 416.143 397.702 410.508 411.005 407.41C424.307 404.312 439.043 403.938 452.756 406.35C466.472 408.764 478.335 413.817 486.373 420.67" stroke="#E4E7F1" stroke-width="2" stroke-linecap="round"/>
<path d="M411.399 456.578C406.488 454.16 402.814 451.013 400.773 447.476C398.733 443.939 398.405 440.146 399.824 436.508C401.243 432.869 404.357 429.524 408.826 426.83C413.296 424.136 418.953 422.198 425.19 421.224C431.426 420.25 438.002 420.277 444.209 421.302C450.418 422.328 456.022 424.312 460.417 427.042C464.812 429.772 467.832 433.144 469.151 436.794C470.47 440.443 470.038 444.232 467.901 447.752" stroke="#AFB4C4" stroke-width="2" stroke-linecap="round"/>
<path d="M415.774 432.475C418.462 430.513 422.027 429.011 426.084 428.132C430.141 427.253 434.534 427.029 438.793 427.487C443.052 427.944 447.012 429.063 450.248 430.725C453.483 432.386 455.872 434.526 457.154 436.914C458.435 439.302 458.565 441.849 457.524 444.277C456.485 446.705 454.317 448.924 451.254 450.695C448.191 452.465 444.35 453.719 440.146 454.322C435.941 454.925 431.531 454.853 427.393 454.116" stroke="#142251" stroke-width="2" stroke-linecap="round"/>
<path d="M421.007 446.032C419.283 444.501 418.384 442.708 418.424 440.881C418.465 439.053 419.444 437.274 421.235 435.766C423.027 434.258 425.553 433.091 428.493 432.413C431.433 431.734 434.654 431.572 437.75 431.95C440.847 432.328 443.679 433.228 445.889 434.536C448.098 435.844 449.586 437.5 450.164 439.297C450.742 441.094 450.384 442.95 449.134 444.629C447.887 446.31 445.803 447.739 443.148 448.735" stroke="#AFB4C4" stroke-width="2" stroke-linecap="round"/>
</g>
<circle cx="43" cy="43" r="43" transform="matrix(0.866025 -0.5 0.866025 0.5 209 43)" fill="#F2F3F8"/>
<g clip-path="url(#clip1_50_84)">
<path d="M281.919 37.9C281.441 37.6239 281.441 37.1761 281.919 36.9C282.471 36.5816 283.123 36.3328 283.862 36.1501C284.665 35.9513 285.447 35.8929 286.249 35.8929C287.051 35.8929 287.833 35.9513 288.637 36.1501C289.375 36.3328 290.028 36.5816 290.579 36.9C291.131 37.2184 291.562 37.5952 291.878 38.0215C292.218 38.4795 292.321 38.9258 292.324 39.3826L292.409 40.4164C292.41 40.4276 292.41 40.4388 292.41 40.45L292.41 43.65C292.41 44.1129 292.309 44.5646 291.965 45.0285C291.648 45.4548 291.217 45.8316 290.666 46.15C290.115 46.4684 289.462 46.7172 288.724 46.8999C287.92 47.0987 287.138 47.1571 286.336 47.1571C285.534 47.1571 284.752 47.0987 283.948 46.8999C283.196 46.7137 282.546 46.4622 281.919 46.1C281.368 45.7816 280.937 45.4048 280.62 44.9785C280.276 44.5146 280.175 44.0629 280.175 43.6L280.175 42.5C280.175 42.1095 280.723 41.7929 281.399 41.7929C282.076 41.7929 282.624 42.1095 282.624 42.5L282.624 43.6C282.624 43.9371 282.696 44.1854 282.872 44.4215C283.075 44.6952 283.337 44.9184 283.651 45.1C284.063 45.3378 284.453 45.4863 284.913 45.6001C285.322 45.7013 285.752 45.7429 286.336 45.7429C286.92 45.7429 287.35 45.7013 287.759 45.6001C288.233 45.4828 288.619 45.3316 288.934 45.15C289.248 44.9684 289.51 44.7452 289.713 44.4715C289.889 44.2354 289.961 43.9871 289.961 43.65L289.961 40.4668L289.876 39.4336C289.875 39.4224 289.874 39.4112 289.874 39.4C289.874 39.0629 289.802 38.8146 289.627 38.5785C289.424 38.3048 289.162 38.0816 288.847 37.9C288.533 37.7184 288.146 37.5673 287.672 37.4499C287.263 37.3487 286.833 37.3071 286.249 37.3071C285.665 37.3071 285.235 37.3487 284.826 37.4499C284.352 37.5672 283.966 37.7184 283.651 37.9C283.173 38.1761 282.397 38.1761 281.919 37.9ZM278.975 41.1C278.66 41.2816 278.398 41.5048 278.195 41.7785C278.02 42.0146 277.948 42.2629 277.948 42.6L277.948 45.8832L278.033 46.9164C278.034 46.9276 278.034 46.9388 278.034 46.95C278.034 47.2871 278.106 47.5354 278.282 47.7715C278.485 48.0452 278.747 48.2684 279.061 48.45C279.376 48.6316 279.762 48.7828 280.236 48.9001C280.645 49.0013 281.075 49.0429 281.659 49.0429C282.243 49.0429 282.673 49.0013 283.082 48.9001C283.556 48.7828 283.943 48.6316 284.257 48.45C284.736 48.1739 285.511 48.1739 285.989 48.45C286.468 48.7261 286.468 49.1739 285.989 49.45C285.438 49.7684 284.785 50.0172 284.047 50.1999C283.243 50.3987 282.461 50.4571 281.659 50.4571C280.858 50.4571 280.075 50.3987 279.272 50.1999C278.533 50.0172 277.881 49.7684 277.329 49.45C276.778 49.1316 276.347 48.7548 276.03 48.3285C275.69 47.8705 275.587 47.4242 275.585 46.9674L275.5 45.9336C275.499 45.9224 275.498 45.9112 275.498 45.9L275.498 42.6C275.498 42.1371 275.599 41.6854 275.944 41.2215C276.26 40.7952 276.691 40.4184 277.243 40.1C277.794 39.7816 278.447 39.5328 279.185 39.3501C279.988 39.1513 280.771 39.0929 281.573 39.0929C282.374 39.0929 283.157 39.1513 283.96 39.3501C284.699 39.5328 285.351 39.7816 285.903 40.1C286.454 40.4184 286.885 40.7952 287.202 41.2215C287.542 41.68 287.645 42.1268 287.647 42.5841L287.733 43.7193C287.762 44.1094 287.238 44.4395 286.562 44.4564C285.886 44.4734 285.315 44.1709 285.285 43.7807L285.199 42.6307C285.198 42.6205 285.198 42.6102 285.198 42.6C285.198 42.2629 285.126 42.0146 284.95 41.7785C284.747 41.5048 284.485 41.2816 284.171 41.1C283.856 40.9184 283.47 40.7672 282.995 40.6499C282.587 40.5487 282.157 40.5071 281.573 40.5071C280.989 40.5071 280.559 40.5487 280.15 40.6499C279.676 40.7672 279.289 40.9184 278.975 41.1Z" fill="#142251"/>
</g>
<circle cx="43" cy="43" r="43" transform="matrix(0.866025 -0.5 0.866025 0.5 271 198)" fill="#F2F3F8"/>
<g clip-path="url(#clip2_50_84)">
<path d="M334.22 198.5C334.242 198.513 334.375 198.579 334.836 198.563C335.294 198.548 335.929 198.451 336.713 198.245C338.272 197.836 340.177 197.06 342.014 196C343.851 194.939 345.194 193.839 345.903 192.939C346.259 192.487 346.427 192.12 346.454 191.856C346.482 191.59 346.366 191.513 346.344 191.5C346.322 191.487 346.188 191.42 345.728 191.436C345.269 191.452 344.634 191.549 343.85 191.754C342.292 192.163 340.387 192.939 338.55 194C336.713 195.06 335.369 196.16 334.661 197.06C334.304 197.513 334.137 197.879 334.109 198.144C334.082 198.41 334.197 198.487 334.22 198.5ZM332.488 199.5C331.792 199.098 331.612 198.557 331.664 198.059C331.716 197.56 332.003 197.018 332.431 196.475C333.289 195.384 334.828 194.148 336.818 193C338.807 191.851 340.948 190.963 342.837 190.467C343.777 190.22 344.717 190.054 345.581 190.024C346.443 189.994 347.381 190.098 348.076 190.5L351.54 192.5L355.004 194.5L358.468 196.5C359.164 196.901 359.343 197.443 359.292 197.94C359.24 198.439 358.952 198.982 358.525 199.525C357.667 200.615 356.128 201.851 354.138 203C352.149 204.148 350.008 205.037 348.119 205.533C347.179 205.779 346.239 205.945 345.375 205.975C344.513 206.005 343.575 205.901 342.88 205.5L339.416 203.5L335.952 201.5L332.488 199.5ZM337.684 200.5C337.706 200.513 337.839 200.579 338.3 200.563C338.759 200.548 339.393 200.451 340.177 200.245C341.736 199.836 343.641 199.06 345.478 198C347.315 196.939 348.658 195.839 349.367 194.939C349.723 194.487 349.891 194.12 349.918 193.856C349.946 193.59 349.83 193.513 349.808 193.5L348.61 192.808C348.484 193.044 348.322 193.284 348.133 193.525C347.274 194.615 345.735 195.851 343.746 197C341.756 198.148 339.616 199.037 337.727 199.533C337.311 199.642 336.895 199.735 336.485 199.808L337.684 200.5ZM339.949 201.808L341.148 202.5C341.17 202.513 341.304 202.579 341.764 202.563C342.223 202.548 342.857 202.451 343.641 202.245C345.2 201.836 347.105 201.06 348.942 200C350.779 198.939 352.123 197.839 352.831 196.939C353.187 196.487 353.355 196.12 353.382 195.856C353.41 195.59 353.294 195.513 353.272 195.5L352.074 194.808C351.948 195.044 351.786 195.284 351.597 195.525C350.738 196.615 349.199 197.851 347.21 199C345.22 200.148 343.08 201.037 341.191 201.533C340.775 201.642 340.359 201.735 339.949 201.808ZM343.413 203.808L344.612 204.5C344.634 204.513 344.768 204.579 345.228 204.563C345.687 204.548 346.322 204.451 347.105 204.245C348.664 203.836 350.569 203.06 352.406 202C354.243 200.939 355.587 199.839 356.295 198.939C356.651 198.487 356.819 198.12 356.847 197.856C356.874 197.59 356.758 197.513 356.736 197.5L355.538 196.808C355.412 197.044 355.25 197.284 355.061 197.525C354.202 198.615 352.664 199.851 350.674 201C348.685 202.148 346.544 203.037 344.655 203.533C344.239 203.642 343.823 203.735 343.413 203.808Z" fill="#142251"/>
</g>
<circle cx="43" cy="43" r="43" transform="matrix(0.866025 -0.5 0.866025 0.5 117 145)" fill="#F2F3F8"/>
<g clip-path="url(#clip3_50_84)">
<path d="M182.818 142C179.948 143.657 179.948 146.343 182.818 148C185.687 149.657 190.34 149.657 193.21 148C196.08 146.343 196.08 143.657 193.21 142C190.34 140.343 185.687 140.343 182.818 142ZM181.086 149C177.259 146.791 177.259 143.209 181.086 141C184.912 138.791 191.116 138.791 194.942 141C196.543 141.924 197.474 143.089 197.735 144.293L207.066 144.293C207.743 144.293 208.291 144.609 208.291 145C208.291 145.391 207.743 145.707 207.066 145.707L197.735 145.707C197.474 146.911 196.543 148.076 194.942 149C191.116 151.209 184.912 151.209 181.086 149Z" fill="#142251"/>
</g>
<circle cx="43" cy="43" r="43" transform="matrix(0.866025 -0.5 0.866025 0.5 149 426)" fill="#F2F3F8"/>
<g clip-path="url(#clip4_50_84)">
<path d="M209.477 426.083L213.365 423.838L217.752 424.924L217.081 426.861C217.001 427.093 217.126 427.333 217.416 427.5C217.499 427.545 217.417 427.5 217.417 427.5L217.418 427.501L217.419 427.502L217.424 427.505L217.435 427.511C217.443 427.515 217.453 427.521 217.464 427.527C217.488 427.54 217.519 427.556 217.556 427.575C217.632 427.613 217.737 427.664 217.872 427.722C218.14 427.838 218.527 427.986 219.033 428.132C220.049 428.426 221.534 428.707 223.478 428.707C225.422 428.707 226.907 428.426 227.923 428.132C228.429 427.986 228.816 427.838 229.084 427.722C229.219 427.664 229.324 427.613 229.399 427.575C229.437 427.556 229.468 427.54 229.491 427.527C229.503 427.521 229.513 427.515 229.521 427.511L229.532 427.505L229.536 427.502L229.538 427.501L229.539 427.5C229.539 427.5 229.631 427.442 229.54 427.5C229.868 427.311 229.983 427.03 229.836 426.776L229.256 425.772L233.738 423.923L237.479 426.083C235.915 427.292 231.238 430.293 223.478 430.293C215.718 430.293 211.041 427.292 209.477 426.083ZM219.633 426.706L220.154 425.201C220.381 424.545 219.782 423.887 218.717 423.624L214.33 422.539C213.41 422.311 212.342 422.43 211.633 422.838L207.7 425.11C206.913 425.564 206.719 426.307 207.443 426.874C209.092 428.165 214.426 431.707 223.478 431.707C232.53 431.707 237.864 428.165 239.513 426.874C240.237 426.307 240.043 425.564 239.256 425.11L235.47 422.923C234.623 422.435 233.288 422.371 232.314 422.773L227.832 424.621C226.957 424.982 226.592 425.63 226.932 426.219L227.232 426.739C227.115 426.78 226.98 426.823 226.827 426.867C226.111 427.074 224.998 427.293 223.478 427.293C221.957 427.293 220.845 427.074 220.129 426.867C219.935 426.812 219.77 426.756 219.633 426.706Z" fill="#142251"/>
</g>
<circle cx="43" cy="43" r="43" transform="matrix(0.866025 -0.5 0.866025 0.5 0 369)" fill="#F2F3F8"/>
<g clip-path="url(#clip5_50_84)">
<path d="M60.6216 371C59.665 370.448 59.665 369.552 60.6216 369L74.478 361C75.4346 360.448 76.9855 360.448 77.9421 361L87.4684 366.5C88.425 367.052 88.4249 367.948 87.4684 368.5L83.497 370.793L83.497 373.5C83.497 373.891 82.9486 374.207 82.2722 374.207L77.5834 374.207L73.612 376.5C72.6554 377.052 71.1044 377.052 70.1479 376.5L60.6216 371ZM76.21 362L62.3536 370L71.8799 375.5L76.21 373C76.4397 372.867 76.7512 372.793 77.0761 372.793H81.0475L81.0475 370.5C81.0475 370.312 81.1765 370.133 81.4062 370L85.7363 367.5L76.21 362Z" fill="#142251"/>
<path d="M75.344 368C76.0614 368.414 76.0614 369.086 75.344 369.5C74.6266 369.914 73.4634 369.914 72.7459 369.5C72.0285 369.086 72.0285 368.414 72.7459 368C73.4634 367.586 74.6266 367.586 75.344 368Z" fill="#142251"/>
<path d="M78.8081 366C79.5256 366.414 79.5256 367.086 78.8081 367.5C78.0907 367.914 76.9275 367.914 76.21 367.5C75.4926 367.086 75.4926 366.414 76.21 366C76.9275 365.586 78.0907 365.586 78.8081 366Z" fill="#142251"/>
<path d="M71.8799 370C72.5973 370.414 72.5973 371.086 71.8799 371.5C71.1625 371.914 69.9993 371.914 69.2818 371.5C68.5644 371.086 68.5644 370.414 69.2818 370C69.9993 369.586 71.1625 369.586 71.8799 370Z" fill="#142251"/>
</g>
<circle cx="43" cy="43" r="43" transform="matrix(0.866025 -0.5 0.866025 0.5 355 307)" fill="#F2F3F8"/>
<g clip-path="url(#clip6_50_84)">
<path d="M432.076 305.5C433.511 306.328 433.511 307.672 432.076 308.5C430.641 309.328 428.315 309.328 426.88 308.5C425.445 307.672 425.445 306.328 426.88 305.5C428.315 304.672 430.641 304.672 432.076 305.5Z" fill="#142251"/>
<path d="M437.659 301.829C432.052 300.75 426.796 301.548 423.416 303.5C420.036 305.452 418.653 308.486 420.522 311.724C420.644 311.935 420.931 312.1 421.296 312.171C426.904 313.25 432.16 312.452 435.54 310.5C438.92 308.548 440.303 305.514 438.434 302.276C438.312 302.065 438.025 301.9 437.659 301.829ZM433.808 309.5C431.237 310.984 427.207 311.691 422.662 310.935C421.354 308.311 422.577 305.984 425.148 304.5C427.719 303.016 431.749 302.309 436.294 303.065C437.602 305.689 436.379 308.016 433.808 309.5Z" fill="#142251"/>
</g>
<defs>
<clipPath id="clip0_50_84">
<rect width="212" height="406" fill="white" transform="matrix(0.866025 -0.5 0.866025 0.5 43 321)"/>
</clipPath>
<clipPath id="clip1_50_84">
<rect width="24" height="24" fill="white" transform="matrix(0.866025 -0.5 0.866025 0.5 262.693 43)"/>
</clipPath>
<clipPath id="clip2_50_84">
<rect width="24" height="24" fill="white" transform="matrix(0.866025 -0.5 0.866025 0.5 324.693 198)"/>
</clipPath>
<clipPath id="clip3_50_84">
<rect width="24" height="24" fill="white" transform="matrix(0.866025 -0.5 0.866025 0.5 170.693 145)"/>
</clipPath>
<clipPath id="clip4_50_84">
<rect width="24" height="24" fill="white" transform="matrix(0.866025 -0.5 0.866025 0.5 202.693 426)"/>
</clipPath>
<clipPath id="clip5_50_84">
<rect width="24" height="24" fill="white" transform="matrix(0.866025 -0.5 0.866025 0.5 53.6934 369)"/>
</clipPath>
<clipPath id="clip6_50_84">
<rect width="24" height="24" fill="white" transform="matrix(0.866025 -0.5 0.866025 0.5 408.693 307)"/>
</clipPath>
</defs>
</svg>
