<svg width="434" height="582" viewBox="0 0 434 582" fill="none" xmlns="http://www.w3.org/2000/svg">
<path d="M1.44336 35.8333L431.569 284.167L431.569 562.5C431.569 572.625 424.461 576.729 415.692 571.667L17.3205 341.667C8.55179 336.604 1.44335 324.292 1.44335 314.167L1.44336 35.8333Z" fill="white" stroke="#989EB1" stroke-width="2"/>
<path d="M199.186 342.5L40.4151 250.833C36.0308 248.302 32.4766 250.354 32.4766 255.417L32.4766 282.083C32.4766 287.146 36.0308 293.302 40.4151 295.833L199.186 387.5C203.571 390.031 207.125 387.979 207.125 382.917L207.125 356.25C207.125 351.187 203.571 345.031 199.186 342.5Z" stroke="#E4E7F1"/>
<path d="M334.864 420.833L233.827 362.5C229.443 359.969 225.889 362.021 225.889 367.083L225.889 393.75C225.889 398.813 229.443 404.969 233.827 407.5L334.864 465.833C339.248 468.365 342.802 466.313 342.802 461.25L342.802 434.583C342.802 429.521 339.248 423.365 334.864 420.833Z" stroke="#E4E7F1"/>
<path d="M400.538 481.25C400.538 468.824 391.814 453.713 381.052 447.5C370.29 441.287 361.566 446.324 361.566 458.75C361.566 471.176 370.29 486.287 381.052 492.5C391.814 498.713 400.538 493.676 400.538 481.25Z" stroke="#E4E7F1"/>
<path d="M199.185 275L40.4142 183.333C35.6312 180.572 31.7539 182.81 31.7539 188.333L31.7539 215C31.7539 220.523 35.6312 227.239 40.4142 230L199.185 321.667C203.968 324.428 207.846 322.189 207.846 316.667L207.846 290C207.846 284.477 203.968 277.761 199.185 275Z" fill="#E4E7F1"/>
<path d="M392.598 320L40.4142 116.667C35.6312 113.905 31.7539 116.144 31.7539 121.667L31.7539 148.333C31.7539 153.856 35.6312 160.572 40.4142 163.333L392.598 366.667C397.381 369.428 401.258 367.19 401.258 361.667L401.258 335C401.258 329.477 397.381 322.762 392.598 320Z" fill="#E4E7F1"/>
<path d="M334.863 353.333L233.826 295C229.043 292.239 225.166 294.477 225.166 300L225.166 326.667C225.166 332.19 229.043 338.905 233.826 341.667L334.863 400C339.646 402.761 343.523 400.523 343.523 395L343.523 368.333C343.523 362.81 339.646 356.095 334.863 353.333Z" fill="#E4E7F1"/>
<path d="M401.258 415C401.258 402.113 392.211 386.443 381.051 380C369.891 373.557 360.844 378.78 360.844 391.667C360.844 404.553 369.891 420.223 381.051 426.667C392.211 433.11 401.258 427.887 401.258 415Z" fill="#E4E7F1"/>
<g filter="url(#filter0_i_50_81)">
<path d="M-4.4061e-07 20C-1.97268e-07 8.9543 7.75465 4.47715 17.3205 10L415.692 240C425.257 245.522 433.013 258.954 433.013 270L433.013 286.667L-8.07785e-07 36.6667L-4.4061e-07 20Z" fill="#989EB1"/>
</g>
<path d="M-4.4061e-07 20C-1.97268e-07 8.9543 7.75465 4.47715 17.3205 10L46.188 26.6667C55.7538 32.1895 63.5085 45.621 63.5085 56.6667L63.5085 73.3333L-8.07785e-07 36.6667L-4.4061e-07 20Z" fill="#E4E7F1"/>
<path d="M18.7637 34.1667C21.1552 35.5475 23.0938 34.4282 23.0938 31.6667C23.0938 28.9053 21.1552 25.5475 18.7637 24.1667C16.3723 22.786 14.4336 23.9053 14.4336 26.6667C14.4336 29.4282 16.3723 32.786 18.7637 34.1667Z" fill="white"/>
<path d="M31.754 41.6667C34.1454 43.0475 36.0841 41.9282 36.0841 39.1667C36.0841 36.4053 34.1454 33.0475 31.754 31.6667C29.3625 30.286 27.4238 31.4053 27.4238 34.1667C27.4238 36.9282 29.3625 40.286 31.754 41.6667Z" fill="white"/>
<path d="M44.7442 49.1667C47.1357 50.5475 49.0743 49.4282 49.0743 46.6667C49.0743 43.9053 47.1357 40.5475 44.7442 39.1667C42.3527 37.786 40.4141 38.9053 40.4141 41.6667C40.4141 44.4282 42.3527 47.786 44.7442 49.1667Z" fill="white"/>
<defs>
<filter id="filter0_i_50_81" x="0" y="7.63452" width="433.013" height="283.032" filterUnits="userSpaceOnUse" color-interpolation-filters="sRGB">
<feFlood flood-opacity="0" result="BackgroundImageFix"/>
<feBlend mode="normal" in="SourceGraphic" in2="BackgroundImageFix" result="shape"/>
<feColorMatrix in="SourceAlpha" type="matrix" values="0 0 0 0 0 0 0 0 0 0 0 0 0 0 0 0 0 0 127 0" result="hardAlpha"/>
<feOffset dy="4"/>
<feGaussianBlur stdDeviation="2"/>
<feComposite in2="hardAlpha" operator="arithmetic" k2="-1" k3="1"/>
<feColorMatrix type="matrix" values="0 0 0 0 1 0 0 0 0 1 0 0 0 0 1 0 0 0 0.25 0"/>
<feBlend mode="normal" in2="shape" result="effect1_innerShadow_50_81"/>
</filter>
</defs>
</svg>
