<svg width="115" height="56" viewBox="0 0 115 56" fill="none" xmlns="http://www.w3.org/2000/svg">
<rect width="1.41976" height="3.95712" transform="matrix(1 0 0 -1 2.83984 29.8064)" fill="#142251"/>
<rect width="1.41976" height="1.97856" transform="matrix(1 0 0 -1 5.67773 28.8171)" fill="#142251"/>
<rect width="1.41976" height="1.97856" transform="matrix(1 0 0 -1 0 28.8171)" fill="#142251"/>
<rect width="1.41976" height="1.97856" transform="matrix(1 0 0 -1 8.51953 28.8171)" fill="#142251"/>
<rect width="1.41976" height="1.97856" transform="matrix(1 0 0 -1 11.3574 28.8171)" fill="#142251"/>
<rect width="1.41976" height="3.95712" transform="matrix(1 0 0 -1 14.1973 29.8066)" fill="#142251"/>
<rect width="1.41976" height="5.93568" transform="matrix(1 0 0 -1 17.0352 30.7959)" fill="#142251"/>
<rect width="1.41976" height="21.7642" transform="matrix(1 0 0 -1 19.877 38.71)" fill="#142251"/>
<rect width="1.41976" height="19.7856" transform="matrix(1 0 0 -1 22.7168 37.7207)" fill="#142251"/>
<rect width="1.41976" height="11.8714" transform="matrix(1 0 0 -1 25.5547 33.7637)" fill="#142251"/>
<rect width="1.41976" height="31.657" transform="matrix(1 0 0 -1 28.3945 43.6565)" fill="#142251"/>
<rect width="1.41976" height="25.7213" transform="matrix(1 0 0 -1 31.2363 40.6887)" fill="#142251"/>
<rect width="1.41976" height="55.3997" transform="matrix(1 0 0 -1 34.0742 55.5278)" fill="#142251"/>
<rect width="1.41976" height="49.464" transform="matrix(1 0 0 -1 36.9121 52.5598)" fill="#142251"/>
<rect width="1.41976" height="39.5712" transform="matrix(1 0 0 -1 39.752 47.6135)" fill="#142251"/>
<rect width="1.41976" height="45.5069" transform="matrix(1 0 0 -1 42.5938 50.5813)" fill="#142251"/>
<rect width="1.41976" height="27.6998" transform="matrix(1 0 0 -1 45.4316 41.678)" fill="#142251"/>
<rect width="1.41976" height="15.8285" transform="matrix(1 0 0 -1 48.2715 35.7422)" fill="#142251"/>
<rect width="1.41976" height="9.89279" transform="matrix(1 0 0 -1 51.1113 32.7744)" fill="#142251"/>
<rect width="1.41976" height="17.807" transform="matrix(1 0 0 -1 53.9512 36.7314)" fill="#142251"/>
<rect width="1.41976" height="9.89279" transform="matrix(1 0 0 -1 56.791 32.7744)" fill="#142251"/>
<rect width="1.41976" height="19.7856" transform="matrix(1 0 0 -1 62.4688 37.7207)" fill="#AFB4C4"/>
<rect width="1.41976" height="7.91424" transform="matrix(1 0 0 -1 65.3086 31.7852)" fill="#AFB4C4"/>
<rect width="1.41976" height="11.8714" transform="matrix(1 0 0 -1 68.1484 33.7637)" fill="#AFB4C4"/>
<rect width="1.41976" height="9.89279" transform="matrix(1 0 0 -1 70.9883 32.7744)" fill="#AFB4C4"/>
<rect width="1.41976" height="7.91424" transform="matrix(1 0 0 -1 73.8281 31.7852)" fill="#AFB4C4"/>
<rect width="1.41976" height="3.95712" transform="matrix(1 0 0 -1 76.668 29.8066)" fill="#AFB4C4"/>
<rect width="1.41976" height="5.93568" transform="matrix(1 0 0 -1 79.5059 30.7959)" fill="#AFB4C4"/>
<rect width="1.41976" height="7.91424" transform="matrix(1 0 0 -1 82.3457 31.7852)" fill="#AFB4C4"/>
<rect width="1.41976" height="1.97856" transform="matrix(1 0 0 -1 85.1855 28.8171)" fill="#AFB4C4"/>
<rect width="1.41977" height="3.95712" transform="matrix(1 0 0 -1 88.0254 29.8066)" fill="#AFB4C4"/>
<rect width="1.41976" height="3.95712" transform="matrix(1 0 0 -1 90.8652 29.8066)" fill="#AFB4C4"/>
<rect width="1.41976" height="1.97856" transform="matrix(1 0 0 -1 93.7051 28.8171)" fill="#AFB4C4"/>
<rect width="1.41976" height="3.95712" transform="matrix(1 0 0 -1 96.543 29.8066)" fill="#AFB4C4"/>
<rect width="1.41976" height="1.97856" transform="matrix(1 0 0 -1 99.3848 28.8171)" fill="#AFB4C4"/>
<rect width="1.41976" height="1.97856" transform="matrix(1 0 0 -1 102.223 28.8174)" fill="#AFB4C4"/>
<rect width="1.41976" height="1.97856" transform="matrix(1 0 0 -1 105.062 28.8171)" fill="#AFB4C4"/>
<rect width="1.41976" height="1.97856" transform="matrix(1 0 0 -1 107.9 28.8171)" fill="#AFB4C4"/>
<rect width="1.41976" height="1.97856" transform="matrix(1 0 0 -1 110.742 28.8174)" fill="#AFB4C4"/>
<rect width="1.41976" height="1.97856" transform="matrix(1 0 0 -1 113.58 28.8171)" fill="#AFB4C4"/>
</svg>
