<svg width="335" height="160" viewBox="0 0 335 160" fill="none" xmlns="http://www.w3.org/2000/svg">
<path opacity="0.5" d="M197.327 80.9114C199.893 91.3234 193.403 103.074 180.488 113.676C167.605 124.253 148.464 133.562 126.117 139.069C103.77 144.575 82.495 145.225 66.1726 141.844C49.8103 138.455 38.6046 131.065 36.039 120.653C33.4735 110.241 39.963 98.4913 52.8777 87.8886C65.761 77.3116 84.9019 68.0025 107.249 62.4961C129.596 56.9896 150.871 56.3402 167.193 59.7207C183.556 63.1094 194.761 70.4994 197.327 80.9114Z" stroke="#989EB1"/>
<rect y="0.0200195" width="335" height="150" rx="10" fill="#F3F6F9"/>
<path d="M38.0308 15.6814C38.4628 15.8654 38.7988 16.1334 39.0388 16.4854C39.2788 16.8374 39.3988 17.2534 39.3988 17.7334C39.3988 18.4534 39.1268 19.0414 38.5828 19.4974C38.0468 19.9534 37.3348 20.1814 36.4468 20.1814C35.6388 20.1814 34.9868 20.0014 34.4908 19.6414C34.0028 19.2814 33.6588 18.8174 33.4588 18.2494L34.4068 17.7094C34.6548 18.6534 35.3348 19.1254 36.4468 19.1254C37.0308 19.1254 37.4828 18.9974 37.8028 18.7414C38.1228 18.4774 38.2828 18.1294 38.2828 17.6974C38.2828 17.2654 38.1308 16.9174 37.8268 16.6534C37.5308 16.3894 37.1148 16.2574 36.5788 16.2574H35.5948V15.2374H36.3028C36.8148 15.2374 37.2228 15.1134 37.5268 14.8654C37.8308 14.6094 37.9828 14.2774 37.9828 13.8694C37.9828 13.4694 37.8388 13.1454 37.5508 12.8974C37.2708 12.6414 36.8788 12.5134 36.3748 12.5134C35.4468 12.5134 34.8268 12.9254 34.5148 13.7494L33.5788 13.2094C34.0828 12.0494 35.0148 11.4694 36.3748 11.4694C37.1828 11.4694 37.8348 11.6934 38.3308 12.1414C38.8348 12.5894 39.0868 13.1574 39.0868 13.8454C39.0868 14.6454 38.7348 15.2574 38.0308 15.6814ZM45.1042 14.0254H46.1482V20.0254H45.1042V18.9934C44.5842 19.7854 43.8282 20.1814 42.8362 20.1814C41.9962 20.1814 41.2802 19.8774 40.6882 19.2694C40.0962 18.6534 39.8002 17.9054 39.8002 17.0254C39.8002 16.1454 40.0962 15.4014 40.6882 14.7934C41.2802 14.1774 41.9962 13.8694 42.8362 13.8694C43.8282 13.8694 44.5842 14.2654 45.1042 15.0574V14.0254ZM42.9682 19.1734C43.5762 19.1734 44.0842 18.9694 44.4922 18.5614C44.9002 18.1454 45.1042 17.6334 45.1042 17.0254C45.1042 16.4174 44.9002 15.9094 44.4922 15.5014C44.0842 15.0854 43.5762 14.8774 42.9682 14.8774C42.3682 14.8774 41.8642 15.0854 41.4562 15.5014C41.0482 15.9094 40.8442 16.4174 40.8442 17.0254C40.8442 17.6334 41.0482 18.1454 41.4562 18.5614C41.8642 18.9694 42.3682 19.1734 42.9682 19.1734ZM53.25 14.0254V20.0254H52.23V15.6694L50.322 18.7414H50.19L48.282 15.6694V20.0254H47.25V14.0254H48.366L50.25 17.0614L52.134 14.0254H53.25ZM55.0957 17.5054C55.1997 18.0414 55.4437 18.4574 55.8277 18.7534C56.2197 19.0494 56.6997 19.1974 57.2677 19.1974C58.0597 19.1974 58.6357 18.9054 58.9957 18.3214L59.8837 18.8254C59.2997 19.7294 58.4197 20.1814 57.2437 20.1814C56.2917 20.1814 55.5157 19.8854 54.9157 19.2934C54.3237 18.6934 54.0277 17.9374 54.0277 17.0254C54.0277 16.1214 54.3197 15.3694 54.9037 14.7694C55.4877 14.1694 56.2437 13.8694 57.1717 13.8694C58.0517 13.8694 58.7677 14.1814 59.3197 14.8054C59.8797 15.4214 60.1597 16.1654 60.1597 17.0374C60.1597 17.1894 60.1477 17.3454 60.1237 17.5054H55.0957ZM57.1717 14.8534C56.6117 14.8534 56.1477 15.0134 55.7797 15.3334C55.4117 15.6454 55.1837 16.0654 55.0957 16.5934H59.1037C59.0157 16.0254 58.7917 15.5934 58.4317 15.2974C58.0717 15.0014 57.6517 14.8534 57.1717 14.8534ZM65.1094 14.0254V15.0334H63.0694V20.0254H62.0254V15.0334H59.9734V14.0254H65.1094ZM70.6203 20.0254H69.3243L66.5883 17.1814V20.0254H65.5443V14.0254H66.5883V16.6774L69.1803 14.0254H70.5243L67.6563 16.9294L70.6203 20.0254ZM75.5284 14.0254H76.5724V20.0254H75.5284V18.9934C75.0084 19.7854 74.2524 20.1814 73.2604 20.1814C72.4204 20.1814 71.7044 19.8774 71.1124 19.2694C70.5204 18.6534 70.2244 17.9054 70.2244 17.0254C70.2244 16.1454 70.5204 15.4014 71.1124 14.7934C71.7044 14.1774 72.4204 13.8694 73.2604 13.8694C74.2524 13.8694 75.0084 14.2654 75.5284 15.0574V14.0254ZM73.3924 19.1734C74.0004 19.1734 74.5084 18.9694 74.9164 18.5614C75.3244 18.1454 75.5284 17.6334 75.5284 17.0254C75.5284 16.4174 75.3244 15.9094 74.9164 15.5014C74.5084 15.0854 74.0004 14.8774 73.3924 14.8774C72.7924 14.8774 72.2884 15.0854 71.8804 15.5014C71.4724 15.9094 71.2684 16.4174 71.2684 17.0254C71.2684 17.6334 71.4724 18.1454 71.8804 18.5614C72.2884 18.9694 72.7924 19.1734 73.3924 19.1734Z" fill="#142251"/>
<path d="M21.2986 11.742C20.8552 11.2407 20.0545 11.2098 19.5207 11.7629L14.2949 17.178C14.1598 17.318 14.1598 17.4964 14.2949 17.6364C14.4301 17.7765 14.6022 17.7765 14.7373 17.6364L19.0599 13.1573C19.3119 12.8963 19.7204 12.8963 19.9723 13.1573C20.2243 13.4184 20.2243 13.8417 19.9723 14.1028L15.6497 18.5819C15.0107 19.2441 14.0216 19.2441 13.3825 18.5819C12.7435 17.9197 12.7435 16.8947 13.3825 16.2325L18.6083 10.8175C19.6196 9.76957 21.2631 9.73547 22.2402 10.8277C23.2417 11.8763 23.2712 13.5709 22.2212 14.5802L16.1014 20.9217C14.6881 22.3861 12.4732 22.3861 11.0599 20.9217C9.64669 19.4573 9.64669 17.1621 11.0599 15.6977L16.2857 10.2827C16.5377 10.0216 16.9462 10.0216 17.1981 10.2827C17.4501 10.5438 17.4501 10.967 17.1981 11.2281L11.9723 16.6432C11.063 17.5854 11.063 19.034 11.9723 19.9763C12.8817 20.9185 14.2796 20.9185 15.189 19.9763L21.318 13.6253C21.3246 13.6185 21.3313 13.6118 21.3382 13.6052C21.822 13.1457 21.8518 12.316 21.318 11.7629C21.3114 11.7561 21.3049 11.7491 21.2986 11.742Z" fill="#142251"/>
<path opacity="0.1" d="M0 33.02L335 33.02" stroke="#142251"/>
<path d="M308.293 134.607C307.902 134.216 307.902 133.583 308.293 133.192L318.192 123.293C318.583 122.902 319.216 122.902 319.607 123.293C319.997 123.683 319.997 124.317 319.607 124.707L309.707 134.607C309.317 134.997 308.683 134.997 308.293 134.607ZM313.243 136.728C312.852 136.337 312.852 135.704 313.243 135.314L320.314 128.243C320.704 127.852 321.337 127.852 321.728 128.243C322.118 128.633 322.118 129.266 321.728 129.657L314.657 136.728C314.266 137.118 313.633 137.118 313.243 136.728ZM318.192 138.849C317.802 138.459 317.802 137.826 318.192 137.435L322.435 133.192C322.826 132.802 323.459 132.802 323.849 133.192C324.24 133.583 324.24 134.216 323.849 134.607L319.607 138.849C319.216 139.24 318.583 139.24 318.192 138.849Z" fill="#142251" fill-opacity="0.44"/>
<path d="M316.188 12.2083C316.439 11.9573 316.846 11.9573 317.097 12.2083L320.5 15.6109L323.903 12.2083C324.154 11.9573 324.561 11.9573 324.812 12.2083C325.063 12.4594 325.063 12.8664 324.812 13.1174L321.409 16.52L324.812 19.9226C325.063 20.1736 325.063 20.5807 324.812 20.8317C324.561 21.0828 324.154 21.0828 323.903 20.8317L320.5 17.4292L317.097 20.8317C316.846 21.0828 316.439 21.0828 316.188 20.8317C315.937 20.5807 315.937 20.1736 316.188 19.9226L319.591 16.52L316.188 13.1174C315.937 12.8664 315.937 12.4594 316.188 12.2083Z" fill="#142251"/>
<path d="M281.6 10.2316C281.882 9.94951 282.34 9.94951 282.622 10.2316L284.788 12.3982C285.071 12.6803 285.071 13.1376 284.788 13.4196L278.288 19.9196C278.153 20.055 277.969 20.1311 277.778 20.1311H275.611C275.212 20.1311 274.889 19.8078 274.889 19.4089V17.2422C274.889 17.0507 274.965 16.867 275.1 16.7316L281.6 10.2316ZM276.333 17.5414V18.6867H277.479L283.256 12.9089L282.111 11.7636L276.333 17.5414ZM272 12.9089C272 12.1112 272.647 11.4645 273.444 11.4645H277.056C277.454 11.4645 277.778 11.7878 277.778 12.1867C277.778 12.5856 277.454 12.9089 277.056 12.9089H273.444V21.5756H282.111V17.9645C282.111 17.5656 282.434 17.2422 282.833 17.2422C283.232 17.2422 283.556 17.5656 283.556 17.9645V21.5756C283.556 22.3733 282.909 23.02 282.111 23.02H273.444C272.647 23.02 272 22.3733 272 21.5756V12.9089Z" fill="#142251"/>
</svg>
