<svg width="98" height="117" viewBox="0 0 98 117" fill="none" xmlns="http://www.w3.org/2000/svg">
<rect x="0.5" y="0.8125" width="97" height="115.375" rx="11.5" fill="white" stroke="#989EB1"/>
<mask id="mask0_0_5024" style="mask-type:alpha" maskUnits="userSpaceOnUse" x="5" y="7" width="88" height="86">
<rect x="5.20312" y="7.05908" width="87.1593" height="85.173" rx="5" fill="#E4E7F1"/>
</mask>
<g mask="url(#mask0_0_5024)">
<path d="M38.6652 55.2449C40.3166 62.246 44.6151 77.8695 46.7942 85.7157C47.5224 88.3389 46.0565 91.0679 43.4673 91.9122C40.7214 92.8076 37.7816 91.2401 36.9947 88.4612L28.3079 57.791C27.5475 54.8156 29.4512 51.8141 32.468 51.2341C35.2756 50.6939 38.0091 52.4621 38.6652 55.2449Z" fill="#F2F3F8"/>
<path d="M46.8058 85.6843L54.2184 112.028L44.436 115.063L36.8869 88.1229C36.1588 85.2735 37.9828 82.3992 40.8707 81.8432C43.5598 81.3266 46.1773 83.0192 46.8058 85.6843Z" fill="#F2F3F8"/>
<path d="M25.2329 47.0577L20.0958 47.3075L15.0904 47.4054L5.34854 52.2715L7.92717 91.7793L35.418 90.8369L34.198 51.1783L25.2329 47.0577Z" fill="#F2F3F8"/>
<path d="M21.5679 58.2584C21.5789 58.5808 21.3268 58.8515 21.0045 58.8625C20.6815 58.8736 20.4114 58.6208 20.4003 58.2985C20.3893 57.9761 20.6415 57.7061 20.9644 57.695C21.2868 57.6839 21.5568 57.9361 21.5679 58.2584Z" fill="#F2F3F8"/>
<path d="M21.8042 65.1742C21.8153 65.4972 21.5631 65.7673 21.2408 65.7783C20.9178 65.7894 20.6477 65.5372 20.6367 65.2142C20.6256 64.8919 20.8778 64.6219 21.2008 64.6108C21.5231 64.5997 21.7931 64.8519 21.8042 65.1742Z" fill="#F2F3F8"/>
<path d="M22.0366 72.0887C22.0477 72.4117 21.7955 72.6818 21.4732 72.6929C21.1502 72.7039 20.8802 72.4518 20.8691 72.1288C20.858 71.8064 21.1102 71.5364 21.4332 71.5253C21.7555 71.5142 22.0256 71.7664 22.0366 72.0887Z" fill="#F2F3F8"/>
<path d="M22.2769 79.0033C22.2879 79.3263 22.0358 79.5964 21.7134 79.6074C21.3905 79.6185 21.1204 79.3663 21.1093 79.0433C21.0983 78.721 21.3504 78.4509 21.6734 78.4399C21.9957 78.4288 22.2658 78.681 22.2769 79.0033Z" fill="#F2F3F8"/>
<path d="M22.5132 85.9193C22.5243 86.2423 22.2721 86.5124 21.9498 86.5234C21.6268 86.5345 21.3567 86.2823 21.3457 85.9594C21.3346 85.637 21.5868 85.367 21.9097 85.3559C22.2321 85.3448 22.5021 85.597 22.5132 85.9193Z" fill="#F2F3F8"/>
<path d="M1.60928 56.5158C0.441167 63.6136 -2.77737 79.4948 -4.41342 87.4718C-4.96089 90.1387 -3.31093 92.7609 -0.670643 93.426C2.13009 94.1312 4.95567 92.366 5.55114 89.5397L12.1166 58.3468C12.6715 55.3263 10.5667 52.4621 7.51789 52.0901C4.6799 51.7434 2.07388 53.6947 1.60928 56.5158Z" fill="#F2F3F8"/>
<path d="M-4.42392 87.4408L-10.0151 114.23L-0.0477693 116.588L5.63872 89.1944C6.16998 86.3019 4.15408 83.5592 1.23425 83.2023C-1.48391 82.8711 -3.97935 84.739 -4.42392 87.4408Z" fill="#F2F3F8"/>
<path d="M37.1228 105.831L8.16172 106.824L7.92566 91.7793L35.3136 90.8405L37.1228 105.831Z" fill="#F2F3F8"/>
<path d="M27.3481 45.7648L24.7734 45.853L25.7641 47.9946L27.3481 45.7648Z" fill="#F2F3F8"/>
<path d="M21.193 53.4515C18.2192 53.5535 15.7253 51.2249 15.6233 48.251L15.2305 36.7905L26.0007 36.4213L26.3935 47.8818C26.4955 50.8557 24.1669 53.3496 21.193 53.4515Z" fill="#F2F3F8"/>
<path d="M22.3145 53.4138L18.9295 49.0322C18.4651 48.303 17.844 47.6815 17.108 47.208L15.7328 46.3242C15.4415 46.1373 15.0645 46.1319 14.7675 46.311L13.4383 47.1128C13.1318 47.298 12.9695 47.6432 13.0276 47.988L13.7288 52.1624C13.797 52.5741 14.3282 52.7234 14.6155 52.4123L17.478 49.3101C17.637 49.1371 17.9198 49.1496 18.0617 49.3358L22.3401 54.1601L22.3145 53.4138Z" fill="#F2F3F8"/>
<path d="M22.3108 53.4157L27.1517 45.9325C27.2868 45.7258 27.2928 45.7125 27.5467 45.8727L28.6796 46.5894C28.9414 46.7552 29.095 47.0896 29.0692 47.4379L29.3815 51.625C29.3508 52.0407 28.9274 52.2227 28.6736 51.9296L26.4055 49.0189C26.2649 48.8562 26.0352 48.8869 25.931 49.0808L22.3364 54.1619L22.3108 53.4157Z" fill="#F2F3F8"/>
<path d="M29.2676 21.9826C28.7818 20.3994 27.6926 18.1791 24.0203 16.6211C17.9539 14.0466 15.0117 20.0565 15.0117 20.0565C13.3967 19.9365 12.0793 20.5482 11.3659 22.1223C10.6974 23.597 11.4941 26.3 11.7442 27.242L13.2595 33.2203L14.2124 27.452C15.2123 23.645 16.8768 22.0514 16.8768 22.0514L22.3184 21.4209L28.4792 32.1497L29.3834 25.6451C29.4985 24.8197 29.5291 23.9822 29.4551 23.1522C29.4125 22.6719 29.3513 22.2555 29.2676 21.9826Z" fill="#F2F3F8"/>
<path d="M27.4295 30.8609C27.4295 30.8609 28.1177 29.6785 29.6392 30.1967C31.1593 30.7146 30.6062 34.3841 28.3694 34.9254C28.3694 34.9254 27.5679 35.1295 26.9162 34.5988C26.9162 34.5988 27.3776 31.886 27.4295 30.8609Z" fill="#F2F3F8"/>
<path d="M13.3927 31.3012C13.3927 31.3012 12.4647 30.1964 11.0585 30.833C9.5959 31.4965 10.3817 35.077 12.6495 35.4646C12.6495 35.4646 13.4629 35.6131 14.077 35.039C14.077 35.039 13.5145 32.3204 13.3927 31.3012Z" fill="#F2F3F8"/>
<path d="M11.4004 32.1094C11.4004 32.1094 12.6434 31.6458 13.5998 33.4683L11.4004 32.1094Z" fill="#F2F3F8"/>
<path d="M12.9576 32.5825C12.9576 32.5825 11.6135 33.3612 12.5561 34.4301L12.9576 32.5825Z" fill="#F2F3F8"/>
<path d="M28.7081 27.353C28.7841 29.5507 28.7256 34.1572 27.468 36.9332C26.2874 39.5391 24.236 40.9908 21.4876 41.1672C18.7399 41.3435 16.6537 40.353 14.8975 37.0832C13.1406 33.814 13.0178 27.9319 13.0178 27.9319C13.0178 27.9319 12.7486 20.0796 20.5092 19.8135C28.6833 19.5333 28.7081 27.353 28.7081 27.353Z" fill="#F2F3F8"/>
<path d="M23.5458 29.68L23.666 33.1859C23.6687 33.264 23.6563 33.3394 23.6313 33.4094C23.5331 33.682 23.2275 33.8216 22.945 33.7563L22.3365 33.6168" fill="#F2F3F8"/>
<path d="M20.178 30.0795C20.1919 30.4838 19.8756 30.8232 19.4706 30.8371C19.0662 30.851 18.7268 30.534 18.7129 30.1297C18.699 29.7253 19.016 29.3859 19.4203 29.372C19.8254 29.3581 20.1642 29.6751 20.178 30.0795Z" fill="#F2F3F8"/>
<path d="M20.8559 28.291L20.8349 26.8979L18.2546 27.0326C17.9286 27.0497 17.6188 27.1783 17.3759 27.3959L15.9251 28.7006L18.0902 28.3017L20.8559 28.291Z" fill="#F2F3F8"/>
<path d="M25.0134 29.9142C25.0273 30.3186 25.366 30.6355 25.7711 30.6216C26.1754 30.6078 26.4924 30.2683 26.4785 29.864C26.4647 29.4596 26.1252 29.1427 25.7208 29.1565C25.3158 29.1704 24.9995 29.5098 25.0134 29.9142Z" fill="#F2F3F8"/>
<path d="M24.4878 28.1657L24.4336 26.7744L26.4718 26.7248C26.7291 26.7185 26.9798 26.824 27.1816 27.0244L28.3902 28.2217L26.6653 27.9783L24.4878 28.1657Z" fill="#F2F3F8"/>
<path d="M22.552 35.0865C22.2447 35.2671 21.981 35.372 21.6846 35.4747C21.3946 35.572 21.0964 35.6416 20.7954 35.6839C20.1941 35.7736 19.5717 35.7232 19.005 35.5444C18.8877 35.508 18.8228 35.3831 18.8598 35.2658C18.8921 35.1624 18.993 35.0996 19.097 35.1117L19.1049 35.1127C19.6259 35.1724 20.1448 35.1149 20.6267 34.9464C20.8683 34.8645 21.1014 34.7607 21.3221 34.6364C21.5364 34.5163 21.767 34.3604 21.9182 34.2248C22.1382 34.025 22.4784 34.0413 22.6776 34.2614C22.8775 34.4814 22.8611 34.821 22.6411 35.0208C22.6145 35.0445 22.5814 35.0685 22.552 35.0865Z" fill="#F2F3F8"/>
<path d="M24.2115 34.1918C24.34 34.3093 24.5455 34.4463 24.7329 34.5488C24.9275 34.6549 25.1326 34.7417 25.3447 34.8068C25.7692 34.9409 26.225 34.9644 26.6748 34.8681L26.6826 34.8666C26.7952 34.8425 26.9059 34.9143 26.9293 35.0269C26.9503 35.1253 26.8982 35.2223 26.8095 35.2605C26.3208 35.4755 25.7592 35.5619 25.2141 35.503C24.9407 35.4765 24.6708 35.4212 24.4079 35.3396C24.1396 35.253 23.9025 35.1633 23.6232 35.0021C23.3812 34.865 23.2969 34.5569 23.4347 34.3149C23.5724 34.0735 23.8798 33.9886 24.1219 34.127C24.1531 34.1449 24.1852 34.1685 24.2115 34.1918Z" fill="#F2F3F8"/>
<path d="M22.1758 37.2507C22.1758 37.2507 22.9273 37.4923 23.9808 37.1889L22.1758 37.2507Z" fill="#F2F3F8"/>
<path d="M66.5187 54.291C68.1701 61.2922 72.4686 76.9156 74.6477 84.7619C75.3759 87.385 73.91 90.114 71.3208 90.9584C68.575 91.8537 65.6351 90.2862 64.8482 87.5073L56.1614 56.8372C55.401 53.8618 57.3047 50.8602 60.3215 50.2803C63.1291 49.7401 65.8627 51.5083 66.5187 54.291Z" fill="#142251"/>
<path d="M74.6555 84.73L82.068 111.073L72.2856 114.109L64.7365 87.1685C64.0084 84.3191 65.8324 81.4448 68.7203 80.8888C71.4094 80.3723 74.0269 82.0649 74.6555 84.73Z" fill="#142251"/>
<path d="M53.0845 46.1033L47.9474 46.3531L42.9419 46.451L33.2001 51.3172L35.7787 90.8249L63.2695 89.8826L62.0496 50.2239L53.0845 46.1033Z" fill="#142251"/>
<path d="M49.4214 57.3048C49.4324 57.6271 49.1803 57.8979 48.858 57.9089C48.535 57.92 48.2649 57.6672 48.2539 57.3448C48.2428 57.0225 48.495 56.7525 48.8179 56.7414C49.1403 56.7303 49.4103 56.9825 49.4214 57.3048Z" fill="#142251"/>
<path d="M49.6597 64.2201C49.6707 64.5431 49.4186 64.8132 49.0963 64.8242C48.7733 64.8353 48.5032 64.5831 48.4921 64.2601C48.4811 63.9378 48.7333 63.6677 49.0562 63.6567C49.3786 63.6456 49.6486 63.8978 49.6597 64.2201Z" fill="#142251"/>
<path d="M49.894 71.1349C49.9051 71.4579 49.6529 71.7279 49.3306 71.739C49.0077 71.7501 48.7376 71.4979 48.7265 71.1749C48.7155 70.8526 48.9676 70.5825 49.2906 70.5714C49.6129 70.5604 49.883 70.8126 49.894 71.1349Z" fill="#142251"/>
<path d="M50.1304 78.0497C50.1414 78.3727 49.8893 78.6427 49.567 78.6538C49.244 78.6649 48.9739 78.4127 48.9628 78.0897C48.9518 77.7674 49.204 77.4973 49.5269 77.4863C49.8493 77.4752 50.1193 77.7274 50.1304 78.0497Z" fill="#142251"/>
<path d="M50.3706 84.9647C50.3817 85.2877 50.1295 85.5578 49.8072 85.5688C49.4842 85.5799 49.2142 85.3277 49.2031 85.0048C49.192 84.6824 49.4442 84.4124 49.7672 84.4013C50.0895 84.3903 50.3596 84.6424 50.3706 84.9647Z" fill="#142251"/>
<path d="M29.4608 55.5612C28.2927 62.6591 25.0742 78.5402 23.4381 86.5172C22.8907 89.1841 24.5406 91.8063 27.1809 92.4714C29.9817 93.1766 32.8072 91.4114 33.4027 88.5851L39.9682 57.3922C40.5231 54.3717 38.4182 51.5076 35.3695 51.1355C32.5315 50.7888 29.9254 52.7401 29.4608 55.5612Z" fill="#142251"/>
<path d="M23.4276 86.4862L17.8365 113.275L27.8038 115.634L33.4903 88.2398C34.0215 85.3473 32.0056 82.6046 29.0858 82.2477C26.3676 81.9165 23.8722 83.7844 23.4276 86.4862Z" fill="#142251"/>
<path d="M64.9783 104.878L36.0172 105.87L35.7811 90.8255L63.169 89.8866L64.9783 104.878Z" fill="#142251"/>
<path d="M55.1977 44.8102L52.623 44.8984L53.6137 47.04L55.1977 44.8102Z" fill="#142251"/>
<path d="M49.0466 52.4979C46.0727 52.5998 43.5788 50.2712 43.4768 47.2974L43.084 35.8369L53.8542 35.4677L54.2471 46.9282C54.349 49.902 52.0204 52.396 49.0466 52.4979Z" fill="#142251"/>
<path d="M50.1661 52.4592L46.781 48.0776C46.3166 47.3484 45.6956 46.7269 44.9596 46.2534L43.5844 45.3696C43.2931 45.1827 42.9161 45.1773 42.6191 45.3564L41.2899 46.1582C40.9833 46.3434 40.8211 46.6886 40.8792 47.0334L41.5803 51.2078C41.6486 51.6195 42.1798 51.7688 42.4671 51.4578L45.3296 48.3555C45.4886 48.1826 45.7713 48.195 45.9133 48.3812L50.1917 53.2055L50.1661 52.4592Z" fill="#142251"/>
<path d="M50.1624 52.4611L55.0033 44.9779C55.1383 44.7712 55.1444 44.7579 55.3983 44.9181L56.5311 45.6348C56.793 45.8006 56.9466 46.135 56.9207 46.4833L57.2331 50.6704C57.2024 51.0861 56.779 51.2681 56.5251 50.975L54.257 48.0643C54.1165 47.9016 53.8868 47.9323 53.7826 48.1262L50.188 53.2073L50.1624 52.4611Z" fill="#142251"/>
<path d="M57.1172 21.0277C56.6314 19.4446 55.5422 17.2243 51.8699 15.6662C45.8035 13.0918 42.8613 19.1017 42.8613 19.1017C41.2463 18.9817 39.9289 19.5934 39.2155 21.1675C38.547 22.6422 39.3437 25.3452 39.5938 26.2871L41.1091 32.2655L42.062 26.4972C43.0619 22.6902 44.7264 21.0965 44.7264 21.0965L50.168 20.466L56.3288 31.1949L57.233 24.6902C57.3481 23.8648 57.3788 23.0274 57.3047 22.1974C57.2621 21.7171 57.2009 21.3006 57.1172 21.0277Z" fill="#142251"/>
<path d="M55.2791 29.9065C55.2791 29.9065 55.9673 28.7242 57.4888 29.2424C59.0089 29.7602 58.4558 33.4298 56.219 33.9711C56.219 33.9711 55.4175 34.1752 54.7658 33.6444C54.7658 33.6444 55.2272 30.9316 55.2791 29.9065Z" fill="#142251"/>
<path d="M41.2403 30.3464C41.2403 30.3464 40.3124 29.2416 38.9062 29.8781C37.4436 30.5416 38.2294 34.1222 40.4972 34.5097C40.4972 34.5097 41.3106 34.6582 41.9246 34.0842C41.9246 34.0842 41.3622 31.3655 41.2403 30.3464Z" fill="#142251"/>
<path d="M39.2539 31.1555C39.2539 31.1555 40.4969 30.692 41.4533 32.5145L39.2539 31.1555Z" fill="#142251"/>
<path d="M40.8072 31.6284C40.8072 31.6284 39.4632 32.4071 40.4057 33.476L40.8072 31.6284Z" fill="#142251"/>
<path d="M56.5617 26.3987C56.6376 28.5963 56.5791 33.2029 55.3215 35.9789C54.1409 38.5847 52.0895 40.0365 49.3411 40.2128C46.5934 40.3892 44.5072 39.3987 42.751 36.1288C40.9941 32.8597 40.8713 26.9776 40.8713 26.9776C40.8713 26.9776 40.6022 19.1252 48.3627 18.8592C56.5368 18.579 56.5617 26.3987 56.5617 26.3987Z" fill="#142251"/>
<path d="M51.3974 28.7259L51.5176 32.2318C51.5203 32.3099 51.5078 32.3853 51.4829 32.4553C51.3846 32.7279 51.0791 32.8675 50.7965 32.8022L50.1881 32.6627" fill="#142251"/>
<path d="M48.0315 29.1254C48.0454 29.5297 47.7291 29.8691 47.3241 29.883C46.9197 29.8969 46.5803 29.5799 46.5664 29.1756C46.5526 28.7712 46.8695 28.4318 47.2739 28.4179C47.6789 28.404 48.0177 28.721 48.0315 29.1254Z" fill="#142251"/>
<path d="M48.7075 27.3371L48.6865 25.944L46.1062 26.0788C45.7802 26.0958 45.4703 26.2244 45.2275 26.442L43.7767 27.7467L45.9417 27.3478L48.7075 27.3371Z" fill="#142251"/>
<path d="M52.8571 28.9594C52.871 29.3637 53.2098 29.6807 53.6148 29.6668C54.0192 29.653 54.3361 29.3135 54.3223 28.9091C54.3084 28.5048 53.969 28.1878 53.5646 28.2017C53.1596 28.2156 52.8433 28.555 52.8571 28.9594Z" fill="#142251"/>
<path d="M52.3452 27.2119L52.291 25.8206L54.3292 25.7709C54.5865 25.7647 54.8372 25.8702 55.039 26.0706L56.2476 27.2678L54.5228 27.0244L52.3452 27.2119Z" fill="#142251"/>
<path d="M50.4056 34.1316C50.0982 34.3123 49.8345 34.4172 49.5381 34.5199C49.2481 34.6172 48.9499 34.6868 48.6489 34.729C48.0476 34.8187 47.4253 34.7684 46.8585 34.5896C46.7412 34.5532 46.6763 34.4283 46.7133 34.311C46.7456 34.2075 46.8465 34.1448 46.9506 34.1568L46.9584 34.1579C47.4794 34.2176 47.9983 34.16 48.4802 33.9916C48.7218 33.9097 48.9549 33.8058 49.1756 33.6816C49.3899 33.5614 49.6205 33.4056 49.7717 33.27C49.9917 33.0701 50.3319 33.0865 50.5311 33.3065C50.731 33.5266 50.7146 33.8661 50.4946 34.066C50.468 34.0897 50.4349 34.1137 50.4056 34.1316Z" fill="#142251"/>
<path d="M52.065 33.2374C52.1935 33.3549 52.399 33.492 52.5864 33.5944C52.781 33.7005 52.9861 33.7874 53.1983 33.8525C53.6227 33.9865 54.0785 34.01 54.5283 33.9138L54.5361 33.9122C54.6487 33.8881 54.7594 33.96 54.7828 34.0726C54.8038 34.171 54.7517 34.2679 54.663 34.3062C54.1743 34.5211 53.6127 34.6075 53.0676 34.5486C52.7942 34.5221 52.5244 34.4669 52.2614 34.3852C51.9931 34.2986 51.756 34.209 51.4767 34.0477C51.2347 33.9106 51.1505 33.6026 51.2882 33.3605C51.426 33.1192 51.7334 33.0343 51.9754 33.1727C52.0067 33.1905 52.0388 33.2142 52.065 33.2374Z" fill="#142251"/>
<path d="M50.0293 36.2966C50.0293 36.2966 50.7808 36.5382 51.8343 36.2348L50.0293 36.2966Z" fill="#142251"/>
<path d="M91.9211 53.4187C93.5725 60.4199 97.871 76.0433 100.05 83.8895C100.778 86.5127 99.3124 89.2417 96.7232 90.0861C93.9773 90.9814 91.0375 89.4139 90.2505 86.635L81.5638 55.9649C80.8033 52.9895 82.7071 49.9879 85.7239 49.4079C88.5315 48.8677 91.265 50.6359 91.9211 53.4187Z" fill="#E4E7F1"/>
<path d="M100.058 83.8589L107.47 110.202L97.6879 113.238L90.1389 86.2974C89.4108 83.448 91.2348 80.5737 94.1227 80.0177C96.8118 79.5012 99.4292 81.1938 100.058 83.8589Z" fill="#E4E7F1"/>
<path d="M78.4888 45.232L73.3517 45.4818L68.3462 45.5797L58.6044 50.4458L61.183 89.9536L88.6738 89.0112L87.4539 49.3526L78.4888 45.232Z" fill="#E4E7F1"/>
<path d="M74.8218 56.4328C74.8328 56.7551 74.5807 57.0258 74.2584 57.0368C73.9354 57.0479 73.6653 56.7951 73.6543 56.4728C73.6432 56.1504 73.8954 55.8804 74.2183 55.8693C74.5407 55.8583 74.8107 56.1104 74.8218 56.4328Z" fill="#E4E7F1"/>
<path d="M75.062 63.3485C75.0731 63.6715 74.8209 63.9416 74.4986 63.9526C74.1756 63.9637 73.9056 63.7115 73.8945 63.3886C73.8834 63.0662 74.1356 62.7962 74.4586 62.7851C74.7809 62.774 75.051 63.0262 75.062 63.3485Z" fill="#E4E7F1"/>
<path d="M75.2944 70.2631C75.3055 70.586 75.0533 70.8561 74.731 70.8672C74.408 70.8782 74.138 70.6261 74.1269 70.3031C74.1159 69.9808 74.368 69.7107 74.691 69.6996C75.0133 69.6886 75.2834 69.9407 75.2944 70.2631Z" fill="#E4E7F1"/>
<path d="M75.5327 77.1779C75.5438 77.5008 75.2916 77.7709 74.9693 77.782C74.6463 77.793 74.3763 77.5409 74.3652 77.2179C74.3541 76.8956 74.6063 76.6255 74.9293 76.6144C75.2516 76.6034 75.5217 76.8555 75.5327 77.1779Z" fill="#E4E7F1"/>
<path d="M75.7729 84.0934C75.784 84.4164 75.5319 84.6864 75.2095 84.6975C74.8866 84.7086 74.6165 84.4564 74.6054 84.1334C74.5944 83.8111 74.8465 83.541 75.1695 83.53C75.4918 83.5189 75.7619 83.7711 75.7729 84.0934Z" fill="#E4E7F1"/>
<path d="M54.8612 54.6889C53.6931 61.7867 50.4746 77.6679 48.8385 85.6449C48.2911 88.3118 49.941 90.934 52.5813 91.5991C55.382 92.3043 58.2076 90.5391 58.8031 87.7128L65.3685 56.5199C65.9234 53.4994 63.8186 50.6352 60.7698 50.2632C57.9319 49.9165 55.3258 51.8678 54.8612 54.6889Z" fill="#E4E7F1"/>
<path d="M48.83 85.6146L43.2388 112.404L53.2061 114.762L58.8926 87.3683C59.4239 84.4757 57.408 81.733 54.4882 81.3761C51.77 81.0449 49.2746 82.9128 48.83 85.6146Z" fill="#E4E7F1"/>
<path d="M90.3767 104.006L61.4156 104.999L61.1796 89.9541L88.5675 89.0153L90.3767 104.006Z" fill="#E4E7F1"/>
<path d="M80.6001 43.9386L78.0254 44.0269L79.0161 46.1684L80.6001 43.9386Z" fill="#E4E7F1"/>
<path d="M74.4509 51.6266C71.477 51.7285 68.9831 49.3999 68.8811 46.426L68.4883 34.9656L79.2585 34.5964L79.6514 46.0568C79.7533 49.0307 77.4247 51.5246 74.4509 51.6266Z" fill="#E4E7F1"/>
<path d="M75.5665 51.5879L72.1814 47.2063C71.717 46.477 71.096 45.8555 70.36 45.382L68.9848 44.4982C68.6935 44.3113 68.3165 44.306 68.0195 44.485L66.6903 45.2868C66.3837 45.4721 66.2215 45.8173 66.2796 46.1621L66.9807 50.3365C67.049 50.7481 67.5802 50.8975 67.8675 50.5864L70.73 47.4842C70.889 47.3112 71.1717 47.3237 71.3137 47.5098L75.5921 52.3341L75.5665 51.5879Z" fill="#E4E7F1"/>
<path d="M75.5706 51.59L80.4115 44.1068C80.5465 43.9001 80.5526 43.8868 80.8065 44.047L81.9393 44.7637C82.2012 44.9295 82.3548 45.2639 82.3289 45.6122L82.6413 49.7993C82.6106 50.215 82.1872 50.397 81.9333 50.1039L79.6652 47.1932C79.5247 47.0305 79.295 47.0612 79.1908 47.2551L75.5962 52.3362L75.5706 51.59Z" fill="#E4E7F1"/>
<path d="M82.5196 20.1564C82.0337 18.5732 80.9445 16.3529 77.2723 14.7949C71.2058 12.2204 68.2637 18.2303 68.2637 18.2303C66.6487 18.1103 65.3312 18.722 64.6179 20.2961C63.9493 21.7709 64.7461 24.4738 64.9961 25.4158L66.5114 31.3942L67.4643 25.6258C68.4643 21.8189 70.1288 20.2252 70.1288 20.2252L75.5703 19.5947L81.7311 30.3235L82.6354 23.8189C82.7505 22.9935 82.7811 22.156 82.707 21.3261C82.6645 20.8457 82.6033 20.4293 82.5196 20.1564Z" fill="#E4E7F1"/>
<path d="M80.6814 29.0347C80.6814 29.0347 81.3697 27.8524 82.8912 28.3706C84.4112 28.8884 83.8581 32.5579 81.6213 33.0993C81.6213 33.0993 80.8199 33.3033 80.1682 32.7726C80.1682 32.7726 80.6296 30.0598 80.6814 29.0347Z" fill="#E4E7F1"/>
<path d="M66.6466 29.4753C66.6466 29.4753 65.7186 28.3705 64.3124 29.007C62.8498 29.6705 63.6357 33.2511 65.9034 33.6387C65.9034 33.6387 66.7168 33.7871 67.3309 33.2131C67.3309 33.2131 66.7684 30.4944 66.6466 29.4753Z" fill="#E4E7F1"/>
<path d="M64.6543 30.2839C64.6543 30.2839 65.8973 29.8204 66.8537 31.6429L64.6543 30.2839Z" fill="#E4E7F1"/>
<path d="M66.2076 30.7565C66.2076 30.7565 64.8635 31.5353 65.8061 32.6042L66.2076 30.7565Z" fill="#E4E7F1"/>
<path d="M81.9601 25.5268C82.0361 27.7245 81.9775 32.3311 80.72 35.1071C79.5393 37.7129 77.4879 39.1646 74.7396 39.341C71.9919 39.5173 69.9057 38.5268 68.1494 35.257C66.3925 31.9878 66.2698 26.1058 66.2698 26.1058C66.2698 26.1058 66.0006 18.2534 73.7612 17.9874C81.9352 17.7072 81.9601 25.5268 81.9601 25.5268Z" fill="#E4E7F1"/>
<path d="M76.7997 27.8546L76.9199 31.3605C76.9226 31.4386 76.9102 31.514 76.8852 31.584C76.787 31.8566 76.4814 31.9961 76.1989 31.9308L75.5904 31.7913" fill="#E4E7F1"/>
<path d="M73.4319 28.2533C73.4458 28.6577 73.1295 28.9971 72.7245 29.011C72.3201 29.0248 71.9807 28.7079 71.9668 28.3035C71.953 27.8991 72.2699 27.5597 72.6743 27.5458C73.0793 27.532 73.4181 27.8489 73.4319 28.2533Z" fill="#E4E7F1"/>
<path d="M74.1098 26.4653L74.0888 25.0722L71.5085 25.2069C71.1825 25.224 70.8727 25.3526 70.6298 25.5702L69.179 26.8749L71.3441 26.476L74.1098 26.4653Z" fill="#E4E7F1"/>
<path d="M78.2595 28.0878C78.2733 28.4922 78.6121 28.8091 79.0172 28.7952C79.4215 28.7814 79.7385 28.4419 79.7246 28.0376C79.7108 27.6332 79.3713 27.3163 78.9669 27.3301C78.5619 27.344 78.2456 27.6834 78.2595 28.0878Z" fill="#E4E7F1"/>
<path d="M77.7456 26.3405L77.6914 24.9492L79.7296 24.8996C79.9869 24.8933 80.2376 24.9988 80.4394 25.1992L81.648 26.3965L79.9232 26.1531L77.7456 26.3405Z" fill="#E4E7F1"/>
<path d="M75.8079 33.2603C75.5005 33.441 75.2368 33.5458 74.9405 33.6486C74.6504 33.7459 74.3523 33.8154 74.0512 33.8577C73.45 33.9474 72.8276 33.897 72.2608 33.7183C72.1435 33.6819 72.0786 33.557 72.1157 33.4397C72.148 33.3362 72.2488 33.2734 72.3529 33.2855L72.3608 33.2865C72.8817 33.3462 73.4007 33.2887 73.8825 33.1203C74.1242 33.0383 74.3573 32.9345 74.5779 32.8102C74.7922 32.6901 75.0229 32.5342 75.174 32.3986C75.394 32.1988 75.7343 32.2152 75.9335 32.4352C76.1333 32.6552 76.1169 32.9948 75.8969 33.1946C75.8704 33.2184 75.8373 33.2423 75.8079 33.2603Z" fill="#E4E7F1"/>
<path d="M77.4654 32.3663C77.5939 32.4838 77.7994 32.6209 77.9868 32.7233C78.1814 32.8294 78.3865 32.9163 78.5986 32.9814C79.0231 33.1155 79.4789 33.1389 79.9287 33.0427L79.9365 33.0411C80.0491 33.017 80.1598 33.0889 80.1832 33.2015C80.2042 33.2999 80.1521 33.3968 80.0634 33.4351C79.5747 33.65 79.0131 33.7364 78.468 33.6775C78.1946 33.6511 77.9248 33.5958 77.6618 33.5142C77.3935 33.4275 77.1564 33.3379 76.8771 33.1766C76.6351 33.0395 76.5508 32.7315 76.6886 32.4894C76.8263 32.2481 77.1338 32.1632 77.3758 32.3016C77.407 32.3194 77.4392 32.3431 77.4654 32.3663Z" fill="#E4E7F1"/>
<path d="M75.4297 35.4253C75.4297 35.4253 76.1812 35.6668 77.2347 35.3634L75.4297 35.4253Z" fill="#E4E7F1"/>
<rect x="5.70312" y="7.55859" width="86.1593" height="84.173" rx="6.5" stroke="#989EB1"/>
</g>
</svg>
