<svg width="122" height="51" viewBox="0 0 122 51" fill="none" xmlns="http://www.w3.org/2000/svg">
<g filter="url(#filter0_i_0_5370)">
<rect width="122" height="51" rx="25.5" fill="white"/>
<rect width="17.8319" height="17.8319" transform="translate(11.9622 16.584)" fill="white"/>
<g filter="url(#filter1_i_0_5370)">
<path d="M21.0638 18.2556C21.3452 18.2556 21.6025 18.4146 21.7283 18.6663L23.6444 22.4986L27.8577 23.1114C28.1375 23.1521 28.37 23.3481 28.4574 23.6171C28.5447 23.886 28.4719 24.1812 28.2694 24.3786L25.203 27.3684L25.8928 31.5839C25.9384 31.8625 25.8221 32.1428 25.5928 32.3074C25.3635 32.4721 25.0607 32.4925 24.8113 32.3602L21.0638 30.3717L17.3163 32.3602C17.0669 32.4925 16.7641 32.4721 16.5347 32.3074C16.3054 32.1428 16.1892 31.8625 16.2348 31.5839L16.9246 27.3684L13.8581 24.3786C13.6557 24.1812 13.5828 23.886 13.6702 23.6171C13.7576 23.3481 13.99 23.1521 14.2699 23.1114L18.4831 22.4986L20.3992 18.6663C20.5251 18.4146 20.7823 18.2556 21.0638 18.2556ZM21.0638 29.2148L19.5414 25.116C19.4327 25.3334 19.3217 23.8782 19.081 23.9132L22.8849 26.5091L18.239 26.5746C18.4126 26.7439 18.1875 25.4339 18.1483 25.6732L20.7851 26.3663L21.8734 26.5233C22.0912 26.4078 21.1942 28.7587 21.412 28.8743L24.1843 30.3453L22.6063 29.8526C22.5671 29.6132 21.0395 29.5103 21.2132 29.3411L26.1545 24.3653L20.7851 29.772C20.5445 29.7371 21.6005 27.0052 21.4918 26.7877L21.0638 29.2148Z" fill="#142251"/>
</g>
<rect width="17.8319" height="17.8319" transform="translate(32.0232 16.584)" fill="white"/>
<g filter="url(#filter2_i_0_5370)">
<path d="M41.1248 18.2556C41.4062 18.2556 41.6635 18.4146 41.7894 18.6663L43.7055 22.4986L47.9187 23.1114C48.1986 23.1521 48.431 23.3481 48.5184 23.6171C48.6058 23.886 48.5329 24.1812 48.3305 24.3786L45.264 27.3684L45.9538 31.5839C45.9994 31.8625 45.8832 32.1428 45.6538 32.3074C45.4245 32.4721 45.1217 32.4925 44.8723 32.3602L41.1248 30.3717L37.3773 32.3602C37.1279 32.4925 36.8251 32.4721 36.5958 32.3074C36.3664 32.1428 36.2502 31.8625 36.2958 31.5839L36.9856 27.3684L33.9192 24.3786C33.7167 24.1812 33.6438 23.886 33.7312 23.6171C33.8186 23.3481 34.0511 23.1521 34.3309 23.1114L38.5441 22.4986L40.4602 18.6663C40.5861 18.4146 40.8434 18.2556 41.1248 18.2556ZM41.1248 29.2148L39.6024 25.116C39.4937 25.3334 39.3827 23.8782 39.1421 23.9132L42.9459 26.5091L38.3 26.5746C38.4736 26.7439 38.2485 25.4339 38.2093 25.6732L40.8462 26.3663L41.9345 26.5233C42.1523 26.4078 41.2553 28.7587 41.4731 28.8743L44.2454 30.3453L42.6673 29.8526C42.6281 29.6132 41.1006 29.5103 41.2742 29.3411L46.2155 24.3653L40.8462 29.772C40.6056 29.7371 41.6615 27.0052 41.5528 26.7877L41.1248 29.2148Z" fill="#142251"/>
</g>
<rect width="17.8319" height="17.8319" transform="translate(52.084 16.584)" fill="white"/>
<g filter="url(#filter3_i_0_5370)">
<path d="M61.1856 18.2556C61.467 18.2556 61.7243 18.4146 61.8502 18.6663L63.7663 22.4986L67.9795 23.1114C68.2593 23.1521 68.4918 23.3481 68.5792 23.6171C68.6666 23.886 68.5937 24.1812 68.3912 24.3786L65.3248 27.3684L66.0146 31.5839C66.0602 31.8625 65.944 32.1428 65.7146 32.3074C65.4853 32.4721 65.1825 32.4925 64.9331 32.3602L61.1856 30.3717L57.4381 32.3602C57.1887 32.4925 56.8859 32.4721 56.6566 32.3074C56.4272 32.1428 56.311 31.8625 56.3566 31.5839L57.0464 27.3684L53.9799 24.3786C53.7775 24.1812 53.7046 23.886 53.792 23.6171C53.8794 23.3481 54.1119 23.1521 54.3917 23.1114L58.6049 22.4986L60.521 18.6663C60.6469 18.4146 60.9042 18.2556 61.1856 18.2556ZM61.1856 29.2148L59.6632 25.116C59.5545 25.3334 59.4435 23.8782 59.2029 23.9132L63.0067 26.5091L58.3608 26.5746C58.5344 26.7439 58.3093 25.4339 58.2701 25.6732L60.907 26.3663L61.9953 26.5233C62.2131 26.4078 61.3161 28.7587 61.5338 28.8743L64.3062 30.3453L62.7281 29.8526C62.6889 29.6132 61.1614 29.5103 61.335 29.3411L66.2763 24.3653L60.907 29.772C60.6664 29.7371 61.7223 27.0052 61.6136 26.7877L61.1856 29.2148Z" fill="#142251"/>
</g>
<rect width="17.8319" height="17.8319" transform="translate(72.145 16.584)" fill="white"/>
<g filter="url(#filter4_i_0_5370)">
<path d="M81.2466 18.2556C81.5281 18.2556 81.7853 18.4146 81.9112 18.6663L83.8273 22.4986L88.0405 23.1114C88.3204 23.1521 88.5528 23.3481 88.6402 23.6171C88.7276 23.886 88.6548 24.1812 88.4523 24.3786L85.3858 27.3684L86.0756 31.5839C86.1212 31.8625 86.005 32.1428 85.7757 32.3074C85.5463 32.4721 85.2435 32.4925 84.9941 32.3602L81.2466 30.3717L77.4991 32.3602C77.2498 32.4925 76.9469 32.4721 76.7176 32.3074C76.4883 32.1428 76.372 31.8625 76.4176 31.5839L77.1074 27.3684L74.041 24.3786C73.8385 24.1812 73.7657 23.886 73.853 23.6171C73.9404 23.3481 74.1729 23.1521 74.4527 23.1114L78.666 22.4986L80.5821 18.6663C80.7079 18.4146 80.9652 18.2556 81.2466 18.2556ZM81.2466 29.2148L79.7243 25.116C79.6155 25.3334 79.5045 23.8782 79.2639 23.9132L83.0678 26.5091L78.4218 26.5746C78.5955 26.7439 78.3703 25.4339 78.3312 25.6732L80.968 26.3663L82.0563 26.5233C82.2741 26.4078 81.3771 28.7587 81.5949 28.8743L84.3672 30.3453L82.7891 29.8526C82.75 29.6132 81.2224 29.5103 81.396 29.3411L86.3374 24.3653L80.968 29.772C80.7274 29.7371 81.7834 27.0052 81.6746 26.7877L81.2466 29.2148Z" fill="#142251"/>
</g>
<rect width="17.8319" height="17.8319" transform="translate(92.2058 16.584)" fill="white"/>
<g filter="url(#filter5_i_0_5370)">
<path d="M101.307 18.2556C101.589 18.2556 101.846 18.4146 101.972 18.6663L103.888 22.4986L108.101 23.1114C108.381 23.1521 108.614 23.3481 108.701 23.6171C108.788 23.886 108.716 24.1812 108.513 24.3786L105.447 27.3684L106.136 31.5839C106.182 31.8625 106.066 32.1428 105.836 32.3074C105.607 32.4721 105.304 32.4925 105.055 32.3602L101.307 30.3717L97.5599 32.3602C97.3105 32.4925 97.0077 32.4721 96.7784 32.3074C96.5491 32.1428 96.4328 31.8625 96.4784 31.5839L97.1682 27.3684L94.1018 24.3786C93.8993 24.1812 93.8264 23.886 93.9138 23.6171C94.0012 23.3481 94.2337 23.1521 94.5135 23.1114L98.7267 22.4986L100.643 18.6663C100.769 18.4146 101.026 18.2556 101.307 18.2556ZM101.307 29.2148L99.7851 25.116C99.6763 25.3334 99.5653 23.8782 99.3247 23.9132L103.129 26.5091L98.4826 26.5746C98.6563 26.7439 98.4311 25.4339 98.3919 25.6732L101.029 26.3663L102.117 26.5233C102.335 26.4078 101.438 28.7587 101.656 28.8743L104.428 30.3453L102.85 29.8526C102.811 29.6132 101.283 29.5103 101.457 29.3411L106.398 24.3653L101.029 29.772C100.788 29.7371 101.844 27.0052 101.735 26.7877L101.307 29.2148Z" fill="#142251"/>
</g>
</g>
<defs>
<filter id="filter0_i_0_5370" x="0" y="0" width="122" height="51" filterUnits="userSpaceOnUse" color-interpolation-filters="sRGB">
<feFlood flood-opacity="0" result="BackgroundImageFix"/>
<feBlend mode="normal" in="SourceGraphic" in2="BackgroundImageFix" result="shape"/>
<feColorMatrix in="SourceAlpha" type="matrix" values="0 0 0 0 0 0 0 0 0 0 0 0 0 0 0 0 0 0 127 0" result="hardAlpha"/>
<feOffset/>
<feGaussianBlur stdDeviation="3.34348"/>
<feComposite in2="hardAlpha" operator="arithmetic" k2="-1" k3="1"/>
<feColorMatrix type="matrix" values="0 0 0 0 0.894118 0 0 0 0 0.905882 0 0 0 0 0.945098 0 0 0 1 0"/>
<feBlend mode="normal" in2="shape" result="effect1_innerShadow_0_5370"/>
</filter>
<filter id="filter1_i_0_5370" x="13.6338" y="18.2556" width="14.8599" height="14.1912" filterUnits="userSpaceOnUse" color-interpolation-filters="sRGB">
<feFlood flood-opacity="0" result="BackgroundImageFix"/>
<feBlend mode="normal" in="SourceGraphic" in2="BackgroundImageFix" result="shape"/>
<feColorMatrix in="SourceAlpha" type="matrix" values="0 0 0 0 0 0 0 0 0 0 0 0 0 0 0 0 0 0 127 0" result="hardAlpha"/>
<feOffset/>
<feGaussianBlur stdDeviation="1.11449"/>
<feComposite in2="hardAlpha" operator="arithmetic" k2="-1" k3="1"/>
<feColorMatrix type="matrix" values="0 0 0 0 1 0 0 0 0 1 0 0 0 0 1 0 0 0 1 0"/>
<feBlend mode="normal" in2="shape" result="effect1_innerShadow_0_5370"/>
</filter>
<filter id="filter2_i_0_5370" x="33.6948" y="18.2556" width="14.8599" height="14.1912" filterUnits="userSpaceOnUse" color-interpolation-filters="sRGB">
<feFlood flood-opacity="0" result="BackgroundImageFix"/>
<feBlend mode="normal" in="SourceGraphic" in2="BackgroundImageFix" result="shape"/>
<feColorMatrix in="SourceAlpha" type="matrix" values="0 0 0 0 0 0 0 0 0 0 0 0 0 0 0 0 0 0 127 0" result="hardAlpha"/>
<feOffset/>
<feGaussianBlur stdDeviation="1.11449"/>
<feComposite in2="hardAlpha" operator="arithmetic" k2="-1" k3="1"/>
<feColorMatrix type="matrix" values="0 0 0 0 1 0 0 0 0 1 0 0 0 0 1 0 0 0 1 0"/>
<feBlend mode="normal" in2="shape" result="effect1_innerShadow_0_5370"/>
</filter>
<filter id="filter3_i_0_5370" x="53.7556" y="18.2556" width="14.8599" height="14.1912" filterUnits="userSpaceOnUse" color-interpolation-filters="sRGB">
<feFlood flood-opacity="0" result="BackgroundImageFix"/>
<feBlend mode="normal" in="SourceGraphic" in2="BackgroundImageFix" result="shape"/>
<feColorMatrix in="SourceAlpha" type="matrix" values="0 0 0 0 0 0 0 0 0 0 0 0 0 0 0 0 0 0 127 0" result="hardAlpha"/>
<feOffset/>
<feGaussianBlur stdDeviation="1.11449"/>
<feComposite in2="hardAlpha" operator="arithmetic" k2="-1" k3="1"/>
<feColorMatrix type="matrix" values="0 0 0 0 1 0 0 0 0 1 0 0 0 0 1 0 0 0 1 0"/>
<feBlend mode="normal" in2="shape" result="effect1_innerShadow_0_5370"/>
</filter>
<filter id="filter4_i_0_5370" x="73.8167" y="18.2556" width="14.8599" height="14.1912" filterUnits="userSpaceOnUse" color-interpolation-filters="sRGB">
<feFlood flood-opacity="0" result="BackgroundImageFix"/>
<feBlend mode="normal" in="SourceGraphic" in2="BackgroundImageFix" result="shape"/>
<feColorMatrix in="SourceAlpha" type="matrix" values="0 0 0 0 0 0 0 0 0 0 0 0 0 0 0 0 0 0 127 0" result="hardAlpha"/>
<feOffset/>
<feGaussianBlur stdDeviation="1.11449"/>
<feComposite in2="hardAlpha" operator="arithmetic" k2="-1" k3="1"/>
<feColorMatrix type="matrix" values="0 0 0 0 1 0 0 0 0 1 0 0 0 0 1 0 0 0 1 0"/>
<feBlend mode="normal" in2="shape" result="effect1_innerShadow_0_5370"/>
</filter>
<filter id="filter5_i_0_5370" x="93.8774" y="18.2556" width="14.8599" height="14.1912" filterUnits="userSpaceOnUse" color-interpolation-filters="sRGB">
<feFlood flood-opacity="0" result="BackgroundImageFix"/>
<feBlend mode="normal" in="SourceGraphic" in2="BackgroundImageFix" result="shape"/>
<feColorMatrix in="SourceAlpha" type="matrix" values="0 0 0 0 0 0 0 0 0 0 0 0 0 0 0 0 0 0 127 0" result="hardAlpha"/>
<feOffset/>
<feGaussianBlur stdDeviation="1.11449"/>
<feComposite in2="hardAlpha" operator="arithmetic" k2="-1" k3="1"/>
<feColorMatrix type="matrix" values="0 0 0 0 1 0 0 0 0 1 0 0 0 0 1 0 0 0 1 0"/>
<feBlend mode="normal" in2="shape" result="effect1_innerShadow_0_5370"/>
</filter>
</defs>
</svg>
