<svg id='pin' width="40" height="50" viewBox="0 0 40 50" fill="none" xmlns="http://www.w3.org/2000/svg">
    <g>
        <circle cx="9.99998" cy="44" r="4" fill="#142251"/>
        <ellipse cx="19.5048" cy="25.7128" rx="11.5" ry="8" transform="rotate(25.8444 19.5048 25.7128)" fill="#AFB4C4"/>
        <path d="M29.4046 30.508C28.5329 32.3078 26.6727 33.4766 24.2792 33.8548C21.8879 34.2327 19.013 33.808 16.2354 32.4626C13.4578 31.1172 11.3423 29.1247 10.1563 27.0141C8.96934 24.9015 8.73327 22.7173 9.60503 20.9176C10.4768 19.1178 12.337 17.949 14.7305 17.5707C17.1218 17.1928 19.9967 17.6175 22.7743 18.9629C25.5519 20.3083 27.6674 22.3009 28.8533 24.4115C30.0403 26.524 30.2764 28.7082 29.4046 30.508Z" stroke="#142251" stroke-opacity="0.44"/>
        <mask id="path-4-inside-1_0_2980" fill="white">
            <path fill-rule="evenodd" clip-rule="evenodd" d="M28.8138 19.1103L18.914 14.3151L14.6813 23.0538C14.6751 23.0657 14.6692 23.0778 14.6633 23.0899C14.6574 23.102 14.6517 23.1142 14.6461 23.1264L14.4613 23.5078L14.5111 23.5319C14.1674 25.1156 15.7027 27.2045 18.1964 28.4125C20.6902 29.6204 23.281 29.53 24.3107 28.2786L24.3611 28.303L28.8138 19.1103Z"/>
        </mask>
        <path fill-rule="evenodd" clip-rule="evenodd" d="M28.8138 19.1103L18.914 14.3151L14.6813 23.0538C14.6751 23.0657 14.6692 23.0778 14.6633 23.0899C14.6574 23.102 14.6517 23.1142 14.6461 23.1264L14.4613 23.5078L14.5111 23.5319C14.1674 25.1156 15.7027 27.2045 18.1964 28.4125C20.6902 29.6204 23.281 29.53 24.3107 28.2786L24.3611 28.303L28.8138 19.1103Z" fill="#AFB4C4"/>
        <path d="M18.914 14.3151L19.35 13.4151L18.45 12.9792L18.0141 13.8792L18.914 14.3151ZM28.8138 19.1103L29.7138 19.5463L30.1497 18.6463L29.2498 18.2104L28.8138 19.1103ZM14.6813 23.0538L15.5721 23.5081L15.5767 23.499L15.5812 23.4897L14.6813 23.0538ZM14.6461 23.1264L15.546 23.5623L15.5505 23.5531L15.5548 23.5437L14.6461 23.1264ZM14.4613 23.5078L13.5614 23.0719L13.1254 23.9718L14.0254 24.4078L14.4613 23.5078ZM14.5111 23.5319L15.4883 23.7439L15.6552 22.9749L14.947 22.6319L14.5111 23.5319ZM24.3107 28.2786L24.7466 27.3786L24.0384 27.0356L23.5385 27.6432L24.3107 28.2786ZM24.3611 28.303L23.9252 29.203L24.8252 29.6389L25.2611 28.7389L24.3611 28.303ZM18.4781 15.2151L28.3779 20.0103L29.2498 18.2104L19.35 13.4151L18.4781 15.2151ZM15.5812 23.4897L19.814 14.7511L18.0141 13.8792L13.7813 22.6178L15.5812 23.4897ZM15.5633 23.5258C15.5661 23.5199 15.5691 23.514 15.5721 23.5081L13.7904 22.5994C13.7812 22.6175 13.7722 22.6357 13.7633 22.654L15.5633 23.5258ZM15.5548 23.5437C15.5576 23.5378 15.5604 23.5318 15.5633 23.5258L13.7633 22.654C13.7544 22.6723 13.7458 22.6907 13.7373 22.7091L15.5548 23.5437ZM15.3613 23.9437L15.546 23.5623L13.7461 22.6905L13.5614 23.0719L15.3613 23.9437ZM14.947 22.6319L14.8973 22.6078L14.0254 24.4078L14.0751 24.4319L14.947 22.6319ZM18.6323 27.5125C17.5089 26.9683 16.6342 26.24 16.0901 25.5136C15.531 24.7672 15.4016 24.1435 15.4883 23.7439L13.5338 23.3198C13.2769 24.504 13.7433 25.7166 14.4894 26.7126C15.2503 27.7285 16.3902 28.6487 17.7605 29.3124L18.6323 27.5125ZM23.5385 27.6432C23.2787 27.9589 22.7091 28.2441 21.7768 28.2681C20.8695 28.2915 19.7558 28.0567 18.6323 27.5125L17.7605 29.3124C19.1308 29.9762 20.5594 30.3001 21.8284 30.2674C23.0724 30.2354 24.313 29.8496 25.0829 28.9139L23.5385 27.6432ZM24.7971 27.403L24.7466 27.3786L23.8747 29.1785L23.9252 29.203L24.7971 27.403ZM27.9139 18.6744L23.4612 27.8671L25.2611 28.7389L29.7138 19.5463L27.9139 18.6744Z" fill="#142251" fill-opacity="0.44" mask="url(#path-4-inside-1_0_2980)"/>
        <ellipse cx="26.2627" cy="11.763" rx="9.5" ry="7.5" transform="rotate(25.8444 26.2627 11.763)" fill="#AFB4C4"/>
        <path d="M34.3625 15.6864C32.7224 19.0724 27.7896 20.2805 23.2112 18.0629C18.6328 15.8452 16.5228 11.2256 18.1629 7.83965C19.8029 4.45366 24.7358 3.24549 29.3142 5.46314C33.8926 7.68078 36.0026 12.3004 34.3625 15.6864Z" stroke="#142251" stroke-opacity="0.44"/>
        <g filter="url(#filter0_f_0_2980)">
            <ellipse cx="23.5487" cy="9.33725" rx="4" ry="3.5" transform="rotate(25.8444 23.5487 9.33725)" fill="#E4E7F1"/>
        </g>
        <rect x="14.6679" y="32.2585" width="2" height="13" transform="rotate(25.8444 14.6679 32.2585)" fill="#9DA7CA"/>
    </g>
</svg>
