<svg width="9" height="10" viewBox="0 0 9 10" fill="none" xmlns="http://www.w3.org/2000/svg">
<path d="M0.188289 0.208308C0.43934 -0.0427433 0.846375 -0.0427433 1.09743 0.208308L4.5 3.61088L7.90257 0.208308C8.15363 -0.0427433 8.56066 -0.0427433 8.81171 0.208308C9.06276 0.459359 9.06276 0.866394 8.81171 1.11745L5.40914 4.52002L8.81171 7.92259C9.06276 8.17365 9.06276 8.58068 8.81171 8.83173C8.56066 9.08278 8.15363 9.08278 7.90257 8.83173L4.5 5.42916L1.09743 8.83173C0.846375 9.08278 0.43934 9.08278 0.188289 8.83173C-0.0627628 8.58068 -0.0627628 8.17365 0.188289 7.92259L3.59086 4.52002L0.188289 1.11745C-0.0627628 0.866394 -0.0627628 0.459359 0.188289 0.208308Z" fill="#142251"/>
</svg>
