<svg width="44" height="10" viewBox="0 0 44 10" fill="none" xmlns="http://www.w3.org/2000/svg">
<path d="M5.03078 4.68139C5.46278 4.86539 5.79878 5.13339 6.03878 5.48539C6.27878 5.83739 6.39878 6.25339 6.39878 6.73339C6.39878 7.45339 6.12678 8.04139 5.58278 8.49739C5.04678 8.95339 4.33478 9.18139 3.44678 9.18139C2.63878 9.18139 1.98678 9.00139 1.49078 8.64139C1.00278 8.28139 0.658781 7.81739 0.458781 7.24939L1.40678 6.70939C1.65478 7.65339 2.33478 8.12539 3.44678 8.12539C4.03078 8.12539 4.48278 7.99739 4.80278 7.74139C5.12278 7.47739 5.28278 7.12939 5.28278 6.69739C5.28278 6.26539 5.13078 5.91739 4.82678 5.65339C4.53078 5.38939 4.11478 5.25739 3.57878 5.25739H2.59478V4.23739H3.30278C3.81478 4.23739 4.22278 4.11339 4.52678 3.86539C4.83078 3.60939 4.98278 3.27739 4.98278 2.86939C4.98278 2.46939 4.83878 2.14539 4.55078 1.89739C4.27078 1.64139 3.87878 1.51339 3.37478 1.51339C2.44678 1.51339 1.82678 1.92539 1.51478 2.74939L0.578781 2.20939C1.08278 1.04939 2.01478 0.46939 3.37478 0.46939C4.18278 0.46939 4.83478 0.69339 5.33078 1.14139C5.83478 1.58939 6.08678 2.15739 6.08678 2.84539C6.08678 3.64539 5.73478 4.25739 5.03078 4.68139ZM12.1042 3.02539H13.1482V9.02539H12.1042V7.99339C11.5842 8.78539 10.8282 9.18139 9.83622 9.18139C8.99622 9.18139 8.28022 8.87739 7.68822 8.26939C7.09622 7.65339 6.80022 6.90539 6.80022 6.02539C6.80022 5.14539 7.09622 4.40139 7.68822 3.79339C8.28022 3.17739 8.99622 2.86939 9.83622 2.86939C10.8282 2.86939 11.5842 3.26539 12.1042 4.05739V3.02539ZM9.96822 8.17339C10.5762 8.17339 11.0842 7.96939 11.4922 7.56139C11.9002 7.14539 12.1042 6.63339 12.1042 6.02539C12.1042 5.41739 11.9002 4.90939 11.4922 4.50139C11.0842 4.08539 10.5762 3.87739 9.96822 3.87739C9.36822 3.87739 8.86422 4.08539 8.45622 4.50139C8.04822 4.90939 7.84422 5.41739 7.84422 6.02539C7.84422 6.63339 8.04822 7.14539 8.45622 7.56139C8.86422 7.96939 9.36822 8.17339 9.96822 8.17339ZM20.25 3.02539V9.02539H19.23V4.66939L17.322 7.74139H17.19L15.282 4.66939V9.02539H14.25V3.02539H15.366L17.25 6.06139L19.134 3.02539H20.25ZM22.0957 6.50539C22.1997 7.04139 22.4437 7.45739 22.8277 7.75339C23.2197 8.04939 23.6997 8.19739 24.2677 8.19739C25.0597 8.19739 25.6357 7.90539 25.9957 7.32139L26.8837 7.82539C26.2997 8.72939 25.4197 9.18139 24.2437 9.18139C23.2917 9.18139 22.5157 8.88539 21.9157 8.29339C21.3237 7.69339 21.0277 6.93739 21.0277 6.02539C21.0277 5.12139 21.3197 4.36939 21.9037 3.76939C22.4877 3.16939 23.2437 2.86939 24.1717 2.86939C25.0517 2.86939 25.7677 3.18139 26.3197 3.80539C26.8797 4.42139 27.1597 5.16539 27.1597 6.03739C27.1597 6.18939 27.1477 6.34539 27.1237 6.50539H22.0957ZM24.1717 3.85339C23.6117 3.85339 23.1477 4.01339 22.7797 4.33339C22.4117 4.64539 22.1837 5.06539 22.0957 5.59339H26.1037C26.0157 5.02539 25.7917 4.59339 25.4317 4.29739C25.0717 4.00139 24.6517 3.85339 24.1717 3.85339ZM32.1094 3.02539V4.03339H30.0694V9.02539H29.0254V4.03339H26.9734V3.02539H32.1094ZM37.6203 9.02539H36.3243L33.5883 6.18139V9.02539H32.5443V3.02539H33.5883V5.67739L36.1803 3.02539H37.5243L34.6563 5.92939L37.6203 9.02539ZM42.5284 3.02539H43.5724V9.02539H42.5284V7.99339C42.0084 8.78539 41.2524 9.18139 40.2604 9.18139C39.4204 9.18139 38.7044 8.87739 38.1124 8.26939C37.5204 7.65339 37.2244 6.90539 37.2244 6.02539C37.2244 5.14539 37.5204 4.40139 38.1124 3.79339C38.7044 3.17739 39.4204 2.86939 40.2604 2.86939C41.2524 2.86939 42.0084 3.26539 42.5284 4.05739V3.02539ZM40.3924 8.17339C41.0004 8.17339 41.5084 7.96939 41.9164 7.56139C42.3244 7.14539 42.5284 6.63339 42.5284 6.02539C42.5284 5.41739 42.3244 4.90939 41.9164 4.50139C41.5084 4.08539 41.0004 3.87739 40.3924 3.87739C39.7924 3.87739 39.2884 4.08539 38.8804 4.50139C38.4724 4.90939 38.2684 5.41739 38.2684 6.02539C38.2684 6.63339 38.4724 7.14539 38.8804 7.56139C39.2884 7.96939 39.7924 8.17339 40.3924 8.17339Z" fill="#142251"/>
</svg>
